<svg viewBox="0 0 57 57" xmlns="http://www.w3.org/2000/svg" xml:space="preserve" style="fill-rule:evenodd;clip-rule:evenodd;stroke-linejoin:round;stroke-miterlimit:1.41421"><path style="fill:none" d="M-1-1h582v402H-1z"/><path d="M41.8 30.5c-.1-6.2 5.1-9.2 5.3-9.4-2.9-4.2-7.4-4.8-9-4.9-3.8-.4-7.5 2.3-9.4 2.3-1.9 0-4.9-2.2-8.1-2.1-4.2.1-8 2.4-10.2 6.2-4.4 7.5-1.1 18.6 3.1 24.7 2.1 3 4.5 6.3 7.8 6.2 3.1-.1 4.3-2 8.1-2s4.8 2 8.1 2c3.4-.1 5.5-3 7.5-6 2.4-3.5 3.3-6.8 3.4-7-.1-.1-6.6-2.5-6.6-10ZM35.6 12.2c1.7-2.1 2.9-5 2.6-7.9-2.5.1-5.5 1.6-7.2 3.7-1.6 1.8-3 4.8-2.6 7.6 2.6.3 5.5-1.3 7.2-3.4Z" style="fill:#606060;fill-rule:nonzero"/></svg>