<svg width="399" height="261" fill="none" xmlns="http://www.w3.org/2000/svg"><g opacity=".5"><path d="M25.711 178.633c-4.741.086-11.647.271-16.327.271h-.271v-.271l-.031-6.9v-.314h.308c4.89 0 11.678.043 16.5.142 0 2.09-.136 4.932-.172 7.066l-.007.006Zm0 0c-.061-2.023-.123-4.933-.166-6.9l.166.167c-4.723.086-11.536.123-16.327.135l.308-.302-.037 6.9-.27-.278c4.617 0 11.646.179 16.326.278ZM16.605 187.333c-4.742.086-11.648.271-16.328.271H0v-7.485h.308c4.884 0 11.678.043 16.494.141 0 2.091-.13 4.933-.167 7.067l-.03.006Zm0 0c-.062-2.023-.13-4.933-.167-6.9l.167.167c-4.723.086-11.537.123-16.328.135l.309-.302-.037 6.9-.272-.278c4.613 0 11.648.179 16.328.278ZM246.929 89.71c-4.735.086-11.647.27-16.327.27h-.253v-.27l-.037-6.9v-.315h.309c4.889 0 11.684.043 16.5.142 0 2.09-.136 4.933-.173 7.066l-.019.006Zm0 0c-.055-2.023-.123-4.933-.166-6.9l.166.166c-4.716.086-11.536.123-16.327.142l.309-.308-.031 6.9-.278-.278c4.619 0 11.654.178 16.327.277ZM237.823 98.44c-4.742.086-11.647.271-16.327.271h-.272v-.271l-.036-6.9v-.314h.308c4.889 0 11.678.043 16.5.142 0 2.09-.136 4.932-.173 7.066v.006Zm0 0c-.062-2.022-.123-4.933-.167-6.9l.167.167c-4.717.086-11.536.123-16.327.142l.308-.309-.031 6.9-.277-.278c4.618 0 11.647.18 16.327.278ZM228.752 89.71c-4.741.086-11.647.27-16.327.27h-.271v-.27l-.031-6.9v-.315h.308c4.884 0 11.678.043 16.494.142 0 2.09-.13 4.933-.167 7.066l-.006.006Zm0 0c-.061-2.023-.123-4.933-.166-6.9l.166.166c-4.723.086-11.536.123-16.327.142l.308-.308-.037 6.9-.271-.278c4.618 0 11.647.178 16.327.277ZM397.53 187.333c-4.742.086-11.647.271-16.327.271h-.271v-.271l-.037-6.888v-.314h.308c4.889 0 11.678.043 16.5.142 0 2.09-.136 4.932-.173 7.066v-.006Zm0 0c-.062-2.023-.123-4.933-.167-6.9l.167.166c-4.717.087-11.536.124-16.327.136l.308-.302v6.9l-.277-.278c4.618 0 11.647.179 16.327.278h-.031ZM388.424 18.586c-4.741.087-11.647.272-16.327.272h-.271v-.278l-.031-6.9v-.314h.308c4.89 0 11.678.043 16.5.142 0 2.09-.136 4.933-.173 7.066l-.006.012Zm0 0c-.061-2.022-.123-4.932-.166-6.9l.166.167c-4.723.086-11.536.13-16.327.142l.308-.308v6.9l-.277-.278c4.618 0 11.647.178 16.327.277h-.031ZM397.53 27.286c-4.742.086-11.647.271-16.327.271h-.271v-.271l-.037-6.9v-.314h.308c4.889 0 11.678.043 16.5.142 0 2.09-.136 4.933-.173 7.066v.006Zm0 0c-.062-2.022-.123-4.933-.167-6.9l.167.167c-4.717.086-11.536.13-16.327.142l.308-.308v6.899l-.277-.277c4.618 0 11.647.178 16.327.277h-.031ZM25.712 18.586c-4.742.086-11.648.271-16.328.271h-.27v-.277l-.038-6.893v-.315h.308c4.89 0 11.679.043 16.5.142 0 2.09-.135 4.933-.172 7.066v.006Zm0 0c-.062-2.022-.124-4.933-.167-6.9l.167.167c-4.723.086-11.537.13-16.328.142l.309-.308-.037 6.9-.272-.303c4.619 0 11.648.179 16.328.277v.025ZM7.281 238.676h115.24l2.392-47.286H4.883l2.398 47.286Z" fill="#EBEBEB"/><path d="M117.059 213.032h-48.18l-.9-16.414h50.152l-1.072 16.414Zm-47.638-.58h47.083l1.011-15.254H68.589l.832 15.254ZM116.17 231.918H70.765l-.734-14.798h47.064l-.925 14.798Zm-44.85-.58h44.301l.851-13.657H70.654l.666 13.657Z" fill="#DBDBDB"/><path d="M97.605 206.607H89.51l-.505-3.958h9.113l-.512 3.958Zm-7.584-.579h7.073l.363-2.8h-7.793l.357 2.8ZM97.605 226.492H89.51l-.505-3.959h9.113l-.512 3.959Zm-7.584-.586h7.073l.363-2.793h-7.793l.357 2.793ZM60.389 213.032h-48.18l-.9-16.414h50.134l-1.054 16.414Zm-47.625-.58h47.082l.974-15.254H11.92l.845 15.254ZM59.5 231.918H14.095l-.734-14.798h47.064l-.925 14.798Zm-44.85-.58h44.29l.856-13.657H13.972l.678 13.657Z" fill="#DBDBDB"/><path d="M40.941 206.607h-8.095l-.512-3.958h9.113l-.506 3.958Zm-7.59-.579h7.091l.358-2.8h-7.806l.357 2.8ZM40.941 226.492h-8.095l-.512-3.959h9.113l-.506 3.959Zm-7.59-.586h7.091l.358-2.793h-7.806l.357 2.793Z" fill="#DBDBDB"/><path d="m17.615 238.676-.721 5.148-1.462 10.352H12.59v-15.5h5.025Z" fill="#EBEBEB"/><path d="m17.615 238.676-.721 5.148H12.59v-5.148h5.025Z" fill="#DBDBDB"/><path d="m112.182 238.676.727 5.148 1.455 10.352h2.843v-15.5h-5.025Z" fill="#EBEBEB"/><path d="m112.182 238.676.727 5.148h4.298v-5.148h-5.025Z" fill="#DBDBDB"/><path d="M397.852 30.264h-34.899v42.329h34.899V30.264Z" fill="#EBEBEB"/><path d="M393.856 34.13h-26.92v34.603h26.92V34.13Z" fill="#fff"/><path d="M367.984 34.13h-1.048v34.603h1.048V34.13ZM398.894 30.264h-1.048v42.329h1.048V30.264ZM382.308 38.897h-6.351v18.91h6.351v-18.91Z" fill="#DBDBDB"/><path d="M390.427 61.352h-17.548v-9.865h17.548v9.865Zm-16.932-.616h16.315v-8.632h-16.315v8.632ZM380.401 87.662h-34.899v42.328h34.899V87.662Z" fill="#EBEBEB"/><path d="M376.406 91.522h-26.92v34.602h26.92V91.522Z" fill="#fff"/><path d="M350.535 91.522h-1.049v34.602h1.049V91.522ZM381.443 87.662h-1.048v42.328h1.048V87.662Z" fill="#DBDBDB"/><path d="M365.782 100.468h-5.438v13.75h5.438v-13.75Z" fill="#EBEBEB"/><path d="M371.813 118.608H356.59v-10.093h15.223v10.093Zm-14.607-.616h13.991v-8.861h-13.991v8.861Z" fill="#DBDBDB"/><path d="M64.538 42.414C69.113 28.14 61.25 12.86 46.975 8.284 32.7 3.709 17.419 11.572 12.845 25.847c-4.576 14.275 3.288 29.556 17.563 34.13 14.274 4.576 29.555-3.288 34.13-17.563Z" fill="#EBEBEB"/><path d="M50.474 58.385c13.065-5.82 18.938-21.129 13.119-34.193-5.82-13.065-21.128-18.939-34.193-13.12-13.065 5.82-18.938 21.13-13.119 34.194 5.82 13.065 21.129 18.938 34.193 13.119Z" fill="#DBDBDB"/><path d="M44.36 59.07c13.265-2.278 22.172-14.878 19.894-28.144C61.976 17.66 49.376 8.753 36.11 11.03c-13.266 2.278-22.173 14.878-19.895 28.144 2.277 13.266 14.878 22.174 28.144 19.896Z" fill="#fff"/><path opacity=".5" d="M63.645 29.586c-11.043 6.69-29.201 17.677-39.357 23.695a24.36 24.36 0 0 1-6.628-8.916l33.567-31.112a24.28 24.28 0 0 1 12.418 16.333ZM64.18 35.58c-.088 2.7-.63 5.365-1.603 7.885L32.315 57.776a24.465 24.465 0 0 1-3.823-1.646c9.144-5.278 25.847-14.89 35.688-20.55Z" fill="#EBEBEB"/><path d="M40.172 12.23h-.469v3.674h.469V12.23ZM28.886 15.122l-.405.234 1.837 3.183.406-.235-1.838-3.182ZM20.558 23.279l-.234.406 3.183 1.837.234-.406-3.183-1.837ZM21.107 34.5h-3.675v.469h3.675V34.5ZM23.509 43.943l-3.183 1.838.235.405 3.182-1.837-.234-.406ZM30.316 50.916 28.48 54.1l.405.234 1.836-3.184-.406-.234ZM40.172 53.559h-.469v3.674h.469V53.56ZM49.546 50.92l-.405.234 1.837 3.182.406-.234-1.838-3.182ZM56.348 43.936l-.235.406 3.183 1.837.234-.406-3.182-1.837ZM62.429 34.5h-3.675v.469h3.675V34.5ZM59.306 23.284l-3.183 1.838.234.405 3.183-1.837-.234-.406ZM50.98 15.126l-1.835 3.183.405.234 1.836-3.183-.406-.234Z" fill="#C7C7C7"/><path d="m40.288 13.9.795 22.468-2.3-.024.876-22.456.629.012Z" fill="#C7C7C7"/><path d="m54.285 26.898-15.12 9.65-1.097-2.023 15.92-8.176.297.549Z" fill="#A6A6A6"/><path d="M40.72 34.735a.79.79 0 1 1-1.58 0 .79.79 0 0 1 1.58 0Z" fill="#C7C7C7"/><path d="M343.425 36.59H54.389v217.587h289.036V36.59Z" fill="#EBEBEB"/><path d="M39.14 254.177H54.39V36.59H39.14v217.587Z" fill="#DBDBDB"/><path d="M343.425 36.59H54.389v23.474h289.036V36.59ZM113.841 83.426H85.207v28.634h28.634V83.426Z" fill="#BF3855"/><path opacity=".8" d="M113.841 83.426H85.207v28.634h28.634V83.426Z" fill="#fff"/><path d="M146.951 83.426h-28.635v28.634h28.635V83.426ZM180.097 83.426h-28.634v28.634h28.634V83.426ZM213.222 83.426h-28.634v28.634h28.634V83.426ZM246.351 83.426h-28.634v28.634h28.634V83.426ZM279.472 83.426h-28.634v28.634h28.634V83.426ZM312.603 83.426h-28.634v28.634h28.634V83.426Z" fill="#fff"/><path d="M113.841 115.809H85.207v28.634h28.634v-28.634Z" fill="#BF3855"/><path opacity=".8" d="M113.841 115.809H85.207v28.634h28.634v-28.634Z" fill="#fff"/><path d="M146.968 115.809h-28.634v28.634h28.634v-28.634ZM180.091 115.809h-28.634v28.634h28.634v-28.634ZM213.222 115.809h-28.634v28.634h28.634v-28.634ZM246.351 115.809h-28.634v28.634h28.634v-28.634ZM279.478 115.809h-28.634v28.634h28.634v-28.634ZM312.603 115.809h-28.634v28.634h28.634v-28.634Z" fill="#fff"/><path d="M113.841 148.192H85.207v28.634h28.634v-28.634Z" fill="#BF3855"/><path opacity=".8" d="M113.841 148.192H85.207v28.634h28.634v-28.634Z" fill="#fff"/><path d="M146.968 148.192h-28.634v28.634h28.634v-28.634ZM180.097 148.192h-28.634v28.634h28.634v-28.634ZM213.222 148.192h-28.634v28.634h28.634v-28.634ZM246.351 148.192h-28.634v28.634h28.634v-28.634ZM279.472 148.192h-28.634v28.634h28.634v-28.634ZM312.603 148.192h-28.634v28.634h28.634v-28.634Z" fill="#fff"/><path d="M113.841 180.575H85.207v28.634h28.634v-28.634Z" fill="#BF3855"/><path opacity=".8" d="M113.841 180.575H85.207v28.634h28.634v-28.634Z" fill="#fff"/><path d="M146.968 180.575h-28.634v28.634h28.634v-28.634ZM180.091 180.575h-28.634v28.634h28.634v-28.634ZM213.222 180.575h-28.634v28.634h28.634v-28.634ZM246.351 180.575h-28.634v28.634h28.634v-28.634ZM279.478 180.575h-28.634v28.634h28.634v-28.634ZM312.603 180.575h-28.634v28.634h28.634v-28.634Z" fill="#fff"/><path d="M113.841 212.958H85.207v28.634h28.634v-28.634Z" fill="#BF3855"/><path opacity=".8" d="M113.841 212.958H85.207v28.634h28.634v-28.634Z" fill="#fff"/><path d="M146.968 212.964h-28.634v28.634h28.634v-28.634ZM180.091 212.958h-28.634v28.634h28.634v-28.634ZM213.222 212.958h-28.634v28.634h28.634v-28.634ZM246.351 212.958h-28.634v28.634h28.634v-28.634ZM279.472 212.958h-28.634v28.634h28.634v-28.634ZM312.603 212.958h-28.634v28.634h28.634v-28.634Z" fill="#fff"/><path d="M96.126 76.292a1.277 1.277 0 0 0-.487-.327 1.698 1.698 0 0 0-.684-.13 1.29 1.29 0 0 0-.827.217.716.716 0 0 0-.259.58.616.616 0 0 0 .068.32.617.617 0 0 0 .216.216c.116.067.24.119.37.154l.53.135c.21.04.415.093.617.16.166.053.324.13.468.229a.88.88 0 0 1 .296.327c.071.15.105.315.099.48.004.18-.034.357-.111.518a1.047 1.047 0 0 1-.32.358 1.352 1.352 0 0 1-.488.216c-.202.048-.409.07-.616.068a2.553 2.553 0 0 1-1.72-.617l.209-.345c.082.085.173.162.271.228.235.157.5.264.777.315.156.032.315.049.475.049a1.46 1.46 0 0 0 .795-.185.616.616 0 0 0 .29-.561.697.697 0 0 0-.08-.333.616.616 0 0 0-.247-.235 1.682 1.682 0 0 0-.407-.172 7.894 7.894 0 0 0-.56-.148c-.216-.05-.42-.105-.617-.16-.151-.05-.294-.12-.426-.21a.9.9 0 0 1-.265-.308 1.025 1.025 0 0 1-.086-.438 1.235 1.235 0 0 1 .11-.53.962.962 0 0 1 .321-.383c.143-.11.307-.189.481-.234a2.288 2.288 0 0 1 1.382.043c.226.085.435.21.616.37l-.191.333ZM99.017 79.43c.234.006.465-.047.672-.154.173-.099.319-.239.426-.407.112-.172.189-.365.228-.567.039-.214.059-.43.062-.647V75.49h.419v2.165c.001.276-.03.551-.093.82a1.9 1.9 0 0 1-.314.69c-.145.199-.335.36-.555.469a2.102 2.102 0 0 1-1.696 0 1.504 1.504 0 0 1-.555-.481 1.886 1.886 0 0 1-.302-.69 3.42 3.42 0 0 1-.092-.796v-2.164h.413v2.164c0 .222.023.443.068.66.041.201.118.393.228.567.107.165.253.3.425.395a1.3 1.3 0 0 0 .666.141ZM102.267 76.28v3.496h-.425V75.49h.327l2.836 3.57v-3.564h.425v4.279h-.37l-2.793-3.496ZM129.741 79.776v-3.533l-1.566 2.719h-.246l-1.566-2.72v3.515h-.42v-4.285h.432l1.677 2.935 1.683-2.935h.426v4.285l-.42.019ZM132.966 79.806a1.8 1.8 0 0 1-.82-.185 1.897 1.897 0 0 1-.616-.487c-.18-.204-.32-.44-.413-.696a2.241 2.241 0 0 1 .006-1.622c.1-.255.244-.491.425-.697.175-.197.384-.36.617-.48a1.847 1.847 0 0 1 1.615.012c.236.126.445.295.617.5.174.207.312.442.407.696.098.254.148.523.148.795a2.254 2.254 0 0 1-1.196 1.992 1.851 1.851 0 0 1-.79.172Zm-1.59-2.17c-.002.23.038.457.117.672.072.21.182.405.327.573.136.168.306.305.499.401.201.101.423.152.647.148a1.37 1.37 0 0 0 .654-.16 1.71 1.71 0 0 0 .506-.407 1.99 1.99 0 0 0-.019-2.479c-.14-.164-.312-.299-.505-.394a1.464 1.464 0 0 0-1.295 0c-.192.1-.362.239-.5.407-.14.17-.249.364-.32.573-.075.214-.112.44-.111.666ZM136.197 76.28v3.496h-.426V75.49h.327l2.837 3.57v-3.564h.425v4.279h-.37l-2.793-3.496ZM163.401 75.867h-1.529v3.909h-.425v-3.91h-1.523v-.376h3.477v.377ZM165.775 79.43c.235.006.468-.047.678-.154.173-.099.319-.239.426-.407.107-.174.182-.366.222-.567a3.35 3.35 0 0 0 .067-.647V75.49h.42v2.165c.002.276-.031.552-.099.82a1.91 1.91 0 0 1-.308.69c-.146.2-.339.361-.561.469-.262.124-.55.183-.839.173a1.77 1.77 0 0 1-.851-.185 1.534 1.534 0 0 1-.561-.481 1.991 1.991 0 0 1-.302-.69 3.38 3.38 0 0 1-.086-.796V75.49h.394v2.165a3.4 3.4 0 0 0 .068.66c.039.201.116.394.228.567a1.231 1.231 0 0 0 1.104.549ZM171.479 79.406v.37H168.6V75.49h2.824v.376h-2.405v1.547h2.096v.352h-2.096v1.64h2.46ZM193.897 75.521h.401l.617 1.523.616-1.523h.401l-.746 1.85.82 1.936 1.554-3.798h.456l-1.813 4.285h-.382l-.9-2.115-.907 2.115h-.37l-1.806-4.285h.45l1.56 3.798.814-1.936-.765-1.85ZM201.481 79.406v.37h-2.879V75.49h2.824v.376h-2.399v1.547h2.096v.352h-2.096v1.64h2.454ZM202.283 79.776V75.49h1.449a2.15 2.15 0 0 1 .9.173 1.838 1.838 0 0 1 .999 1.135c.088.268.132.55.13.832.007.3-.042.599-.142.882a1.806 1.806 0 0 1-1.061 1.11c-.27.107-.559.16-.85.154h-1.425Zm3.083-2.146c.003-.24-.035-.48-.111-.71a1.711 1.711 0 0 0-.314-.56 1.47 1.47 0 0 0-.512-.364 1.758 1.758 0 0 0-.697-.13h-1.03v3.54h1.03c.243.003.485-.043.709-.136.195-.086.368-.214.506-.376.141-.164.248-.355.314-.561.071-.228.106-.465.105-.703ZM229.265 75.867h-1.529v3.909h-.426v-3.91h-1.523v-.376h3.478v.377ZM233.284 75.49v4.286h-.419v-2.004h-2.516v2.004h-.425V75.49h.425v1.91h2.541v-1.91h.394ZM236.095 79.43c.234.007.465-.046.672-.154.175-.098.323-.238.432-.407.108-.174.183-.366.222-.567.042-.213.063-.43.062-.647V75.49h.425v2.165c.003.276-.031.552-.099.82-.055.248-.16.483-.308.69-.147.2-.339.36-.561.469a1.812 1.812 0 0 1-.838.173 1.768 1.768 0 0 1-.851-.185 1.518 1.518 0 0 1-.561-.481 1.993 1.993 0 0 1-.303-.69 3.49 3.49 0 0 1-.092-.796V75.49h.419v2.165c-.002.221.021.443.068.66.039.2.114.392.222.567a1.239 1.239 0 0 0 1.091.548ZM261.178 79.776V75.49h2.811v.376h-2.386v1.609h2.041v.345h-2.016v1.986l-.45-.031ZM264.756 79.776V75.49h1.813c.175 0 .348.04.505.117a1.392 1.392 0 0 1 .759 1.233 1.596 1.596 0 0 1-.068.45 1.48 1.48 0 0 1-.191.382 1.127 1.127 0 0 1-.302.29.98.98 0 0 1-.395.16l1.054 1.653h-.481l-1.005-1.579h-1.27v1.579h-.419Zm.419-1.955h1.4a.713.713 0 0 0 .345-.08.818.818 0 0 0 .259-.222c.074-.095.133-.2.173-.314.039-.118.06-.24.061-.364a.99.99 0 0 0-.074-.376.929.929 0 0 0-.462-.518.716.716 0 0 0-.333-.08h-1.369v1.954ZM268.695 79.776V75.49h.426v4.285h-.426ZM295.947 76.292a1.28 1.28 0 0 0-.487-.327 1.716 1.716 0 0 0-.685-.13 1.32 1.32 0 0 0-.832.217.715.715 0 0 0-.259.58.624.624 0 0 0 .284.536c.118.066.245.118.376.154l.53.135c.209.04.415.094.617.16.164.053.32.13.462.229a.95.95 0 0 1 .302.327c.071.15.105.315.099.48.004.18-.034.357-.111.519a1.053 1.053 0 0 1-.321.357 1.373 1.373 0 0 1-.493.216 2.422 2.422 0 0 1-.617.068 2.577 2.577 0 0 1-1.726-.617l.216-.345c.082.085.173.162.271.228.235.157.499.264.777.315.154.032.311.048.469.049.279.016.557-.048.801-.185a.619.619 0 0 0 .29-.561.626.626 0 0 0-.327-.567 1.801 1.801 0 0 0-.407-.173 7.824 7.824 0 0 0-.561-.148c-.216-.05-.419-.105-.617-.16-.15-.05-.294-.12-.425-.21a.9.9 0 0 1-.265-.308 1.014 1.014 0 0 1-.086-.438 1.227 1.227 0 0 1 .111-.53.999.999 0 0 1 .314-.383c.146-.108.311-.188.487-.234.2-.059.408-.088.617-.086.258-.005.516.04.758.13.227.083.436.208.617.37l-.179.332ZM298.359 75.49h.358l1.782 4.286h-.475l-.555-1.338h-1.911l-.549 1.338h-.456l1.806-4.285Zm1.049 2.603-.864-2.115-.881 2.115h1.745ZM303.724 75.867h-1.529v3.909h-.42v-3.91h-1.529v-.376h3.478v.377Z" fill="#37474F"/><path d="M141.839 89.092h-18.405v1.43h18.405v-1.43ZM133.848 92.23h-10.414v1.431h10.414v-1.43ZM174.684 218.556h-18.405v1.431h18.405v-1.431ZM166.693 221.689h-10.414v1.43h10.414v-1.43ZM240.796 185.6h-18.405v1.431h18.405V185.6ZM232.028 191.877h-9.637v1.43h9.637v-1.43ZM235.659 188.739h-13.268v1.43h13.268v-1.43ZM165.448 159.821h-9.637v1.43h9.637v-1.43ZM169.079 156.688h-13.268v1.431h13.268v-1.431Z" fill="#C7C7C7"/><path d="m179.037 155.202-.074-.154c.154.327.068.148.074.154ZM180.233 158.544l-.018-.061.123.511-.105-.45ZM180.573 161.837a10.08 10.08 0 0 0-.074-1.788v-.099a1.91 1.91 0 0 0-.05-.259c.106.71.147 1.428.124 2.146ZM180.326 163.582c.031-.105-.049.376.074-.401v.074c-.031.068-.043.167-.074.327ZM180.407 163.255c.062-.345-.043.222 0 0ZM180.024 164.809c.049-.143.088-.29.117-.438a1.86 1.86 0 0 1-.111.333c-.135.444-.098.358-.006.105ZM179.92 165.228l.068-.222a1.017 1.017 0 0 0-.068.222ZM180.128 164.525l-.142.481a.64.64 0 0 0 .062-.222c0 .043.018-.055.08-.259ZM180.203 164.248c.062-.247.148-.568.049-.118.057-.201.095-.407.111-.616-.006.062-.055.284-.16.734ZM180.597 162.009v-.641c.013.148-.012.666 0 .641ZM178.803 167.355c0 .031.098-.117.129-.142l.161-.289c-.093.141-.266.419-.29.431Z" fill="#3E494E"/><path d="M178.931 167.214c-.08.149-.171.293-.271.431.271-.364.284-.45.271-.431ZM179.925 165.321l.234-.802c-.099.315-.173.617-.29.95l.056-.148ZM177.607 168.847l.179-.222-.327.389.148-.167ZM176.707 169.717c.141-.154-.241.16-.087 0l-.69.58c.197-.173.45-.333.777-.58ZM175.561 170.58c.121-.084.239-.175.351-.271-.111.092-.234.172-.351.271ZM178.143 168.323a2.194 2.194 0 0 0-.278.284l.148-.13.13-.154ZM178.02 168.471ZM178.173 168.286l-.03.037.03-.037ZM179.371 166.523c-.111.277-.432.808-.105.308.092-.197-.093.105.105-.308ZM178.359 168.114c.111-.136.21-.284.321-.432 0 0-.08.08 0-.043-.123.16-.21.321-.321.475ZM178.199 168.323l.161-.209-.13.154-.031.055ZM176.318 170.068c-.179.142-.37.308-.617.469.265-.161.506-.364.752-.543.031-.031.124-.129-.135.074ZM177.193 169.347l-.037.037.037-.037ZM173.248 171.887l.043-.012.006-.012-.049.024ZM176.503 169.964c.134-.1.257-.211.37-.333a5.008 5.008 0 0 1-.413.357s-.012.025.043-.024ZM174.906 171.006c.12-.056.235-.12.346-.192l-.346.192ZM177.088 169.421c-.037.018-.025.018 0 0ZM177.089 169.421l-.216.216.284-.259-.068.043ZM172.546 172.43c.342-.195.701-.36 1.072-.494.463-.246.105-.197-.326-.061l-.487.246c.185-.03 1.097-.425.702-.215a3.962 3.962 0 0 1-.863.333c.148-.037-.055.061-.277.172-.222.111-.463.197-.376.21a6.61 6.61 0 0 0 .579-.241c.013.007-.179.105-.024.05ZM174.203 171.443l.191-.111a4.49 4.49 0 0 1-.696.296 2.55 2.55 0 0 0-.401.235c.32-.155.653-.296.968-.457l-.062.037Z" fill="#3E494E"/><path d="M175.24 170.845c-.117.136-.573.395-.271.271a5.59 5.59 0 0 0 .678-.487c-.863.574.235-.172-.4.216l.462-.308-.456.277-.031.037c-.253.161-.043 0 .031-.037-.278.204-.617.352-.882.531.21-.118.487-.235.869-.5ZM179.03 167.337c-.055.086-.061.111 0 0ZM178.786 167.688c.037-.067.08-.135.203-.326.124-.192 0 0 0 0 .068-.13.247-.457 0-.062l-.037.062c-.164.245-.343.48-.536.703.131-.118.255-.244.37-.377ZM177.158 169.483c-.216.191-.414.4-.617.579.122-.081.24-.17.351-.265.321-.32.229-.259.266-.314ZM173.148 171.906l.087-.081-.438.235.351-.154ZM172.108 172.312l.025-.043-.272.111.247-.068ZM178.18 155.166l.172.203-.172-.203ZM176.96 153.661h-.056c.074.043.105.062.056 0ZM150.699 163.292c.062-.364.148-.758.08-.715l-.061.105c.007.203.001.407-.019.61ZM162.488 150.751h-.111l-.234.117.345-.117ZM162.686 150.412l.499-.056-.499.056ZM179.684 165.123l-.055.321c.16-.463.074-.271.055-.321ZM160.786 173.57c-.314-.043-.555-.123-.77-.16a2.1 2.1 0 0 0 .77.16ZM177.164 154.993c.104.105.16.148.166.135-.111-.111-.179-.172-.166-.135ZM159.127 173.219l.16.062c.222.037.457.067.728.129a7.272 7.272 0 0 0-.888-.191ZM151.476 162.238v-.081a.275.275 0 0 0 0 .081ZM157.21 153.667l-.376.222.376-.222ZM167.73 173.349c.235-.044.037 0 0 0ZM168.901 173.33c-.05 0-.087 0-.087.037a.304.304 0 0 1 .087-.037ZM168.076 173.312l-.303.037.303-.037ZM168.031 173.299l.21-.031s0-.012-.21.031Z" fill="#3E494E"/><path d="m167.402 173.398.383-.05h-.056l-.327.05ZM165.09 172.905h-.05c-.24.043-.135.03.05 0ZM152.125 156.399a3.37 3.37 0 0 1-.432.764l.321-.142c.031-.178.031-.4.111-.622Z" fill="#3E494E"/><path d="m180.042 159.297-.093-.617c.302.709.327 1.276.315.666-.2-.38-.349-.784-.444-1.202-.185-.617-.463-1.141-.568-1.141-.037-.136-.092-.259-.142-.389l.124.222c-.271-.764-.389-.468-.9-1.356-.198-.302-.315-.524-.155-.339a6.165 6.165 0 0 0-.524-.617c-.148-.185-.08-.166.062 0l-.395-.468-.431-.432c-.142-.111-.469-.339-.617-.444-.209-.228.13.086.093 0-.185-.129-.358-.277-.549-.395-.179-.215.296.081.617.407-.34-.573-.432-.357-1.486-1.233.19.1.374.213.548.339a2 2 0 0 0-.53-.474 18.61 18.61 0 0 0-.789-.537c.154.099 1.153.925.499.574a3.013 3.013 0 0 0-.77-.414c.037-.067-.309-.246-.759-.425l.068-.08a2.593 2.593 0 0 0-.777-.179 1.667 1.667 0 0 1-.752-.425c-.9-.259.616.289-.481 0a5.193 5.193 0 0 0-1.036-.247 8.52 8.52 0 0 0-1.171-.105c-.531-.099.098-.055-.087-.105l-.481.031c-.117 0-.08-.031-.061-.043-.401 0-.037.099-.666.099-.167.092-1.295-.198-2.066 0-.191 0 .086-.068.031-.105a9.091 9.091 0 0 0-1.757.376c-.253 0-.5 0-.746.049.548-.031-.124.191-.697.395h.475l-.931.246c-.118 0-.031-.043.111-.117l-.167.062c-.339.049-.185-.062.043-.173h.358c.222-.111.425-.222.364-.271-.062-.049-.173.056-.302.093.055-.031.092-.056.061-.062a1.757 1.757 0 0 0-.283.099l-.241-.068-.043.055-1.233.259c-.845.37-1.548.771-2.843 1.394.296-.216 0-.154 0-.253a2.78 2.78 0 0 0 .746-.296c.315-.174.648-.313.993-.413-.376.111-.314.043-.222 0a12.08 12.08 0 0 0-1.233.586c0-.081-.296.037-.617.178.315.037-.863.524-1.288.882-.05 0 0-.166.616-.469-.715.247-.721.654-1.387.95.129-.099.216-.129.253-.191-.302.234-1.048.789-.907.616l.13-.098c-.27.186-.526.392-.765.616a8.57 8.57 0 0 0-.789.771 3.518 3.518 0 0 0-.808 1.128.615.615 0 0 1 0-.283 12.693 12.693 0 0 0-.709 1.85c0-.198-.579.234-.172-.574a4.079 4.079 0 0 0-.531.999c.093-.154.346-.321.241-.105a5.486 5.486 0 0 0-.666 1.104c.129-.241.154.092.037.481 0-.068-.173 0-.148-.173-.037.358-.099.703-.117 1.055 0-.266-.13-.081-.222.141.049-.104-.185.888-.173 1.172l.087-.438c-.142 1.178.111 1.178.154 2.318-.05-.135-.241-.333-.21.266.049.129.173.419.352.783.178.363.363.807.53 1.276v.197l.32.691a8.37 8.37 0 0 1-1.165-2.356c-.001.264.028.527.086.784 0 .246-.135-.34-.166-.537.078.517.194 1.028.345 1.529.062-.098.506 1.079.574.987a11.506 11.506 0 0 1-.654-1.554c.037-.043.167.173.327.524.16.352.388.826.616 1.307.093.259-.24-.111-.259-.08-.018.031.173.284.296.506.124.222.266.425.278.474-.093-.123-.197-.24-.284-.37.29.543.617.796.987 1.419.135.209.394.653.468.647-.203-.376 0-.617.241-.493l.425.555c.222.265.481.53.568.647.252.333-.617-.265-.37 0 .104.049.204.109.296.179.185.185-.148 0 .314.339.136 0 .931.697.265.099.463.314.469.363 1.03.696-.074-.074.08-.043.308.044.228.086.555.178.802.289-.037 0 .061.087.111.13.505.234.918.376 1.313.542.395.167.795.259 1.313.37.093.037.617.155.364.148.207.01.413.033.617.068.616.173-.716-.111-.259.056.049 0 .851.049 1.313.061a14.964 14.964 0 0 0-1.523-.185c0-.049.216-.067.555-.049.339.019.814 0 1.356.037.864 0 .37.074.525.062.492.032.986.009 1.473-.068.419-.061.841-.09 1.264-.086.543 0 .031.117.154.148-.703.086-1.091 0-1.572.043h.617c-.32.035-.641.052-.962.049 1.346.002 2.69-.078 4.026-.24.222-.044.617-.136.419-.124l-.394.068c-.37 0 .733-.173.234-.117.518-.13 1.104-.241 1.85-.395l.148.031a3.706 3.706 0 0 0-.691.136c.494-.077.983-.188 1.462-.333-.173.031-.346.068-.525.086l1.77-.573c-.302.037-.136.068-.617.129.42 0-1.64.432-.98.352-.493 0-.826.16-1.461.197 0 0 .228 0-.321.08l-.117.037s-.031 0 0 0c.096-.008.193-.008.29 0-.476.12-.957.212-1.443.278-.327 0 .136-.037-.043-.037l-.444.086c-.049-.037-.882 0-.111-.093-.234.031-.469.037-.697.056-.419 0-.98.037-1.332.055-.351.019-.832.081-.548.037-.363.029-.728.039-1.092.031h-.82c-.277 0-.555-.043-.845-.068a8.719 8.719 0 0 1-1.738-.333c-.435-.096-.863-.22-1.283-.369l-.098-.087c-.216-.08-.537-.203-.821-.333a3.792 3.792 0 0 0-.616-.296c-.204-.154-.66-.456-1.165-.758l-.716-.524a6.257 6.257 0 0 1-.555-.487l-.067.031a7.598 7.598 0 0 1-.617-.586 6.485 6.485 0 0 1-.617-.697v.074a8.759 8.759 0 0 1-1.233-2.146c.087.133.158.276.21.426-.37-1.055-.95-2.189-.974-3.231a3.273 3.273 0 0 1-.05-.617v.062V163.28a1.221 1.221 0 0 0 0 .296c-.031-.192 0-.494-.037-.783l.074-.124v-.061c0-.284 0-.235-.092-.087v-.388c.135-.216.031-.771.234-1.055-.055-.215.308-1.43.253-1.621 0 0 .062-.08 0 .068.14-.286.255-.583.345-.888l.148-.087.216-.69c.253-.358.401-.481.228-.086.251-.522.536-1.026.851-1.511v.074c.171-.289.378-.554.617-.789.148-.111.357-.339.659-.586.34-.307.696-.595 1.067-.863a12.266 12.266 0 0 1 2.664-1.542c-.401 0 .814-.259.826-.413.117 0 .358-.074.099.074a6.634 6.634 0 0 1 1.06-.382c.294-.087.58-.197.857-.327.111 0-.179.111-.08.111.12-.052.247-.09.376-.111.099 0-.117.068-.259.13.919-.253.98-.414 1.017-.555a2.813 2.813 0 0 0 1.055-.259c.172 0 .456 0-.123.129.326-.092 2.022-.277 2.047-.376.186.003.372-.014.555-.049.746-.068.813-.043 1.553-.068h-.209c.296-.142.616-.043 1.233 0 .678.068.82.105.968.105.32.014.637.07.943.166l-.061-.092c.074-.068.37 0 .733.117.384.146.775.272 1.172.376a1.969 1.969 0 0 0-.253-.123c.506.194.984.458 1.418.783.08.049-.142-.037-.259-.08.962.536.179-.05.925.289.111.117-.234 0 .247.296.715.31 1.381.726 1.973 1.233-.099-.141-.198-.283.111-.055.475.358 1.023 1.233 1.449 1.535.043.068.049.093.043.105.148.173.376.456.579.728.149.224.31.44.481.647.144.503.351.986.617 1.437.259.616.438 1.165.321 1.19.064.221.115.445.154.672.047.224.082.45.105.678v-.037c.037.438.067.728.086.962.018.234.049.37.074.536.025.167-.037.056-.049.037a6.229 6.229 0 0 1-.087.771c-.031.21-.043.382-.074.536-.049.327-.074.617-.185 1.16l-.105.086a5.08 5.08 0 0 1-.493 1.085c-.157.27-.328.531-.512.783a9.798 9.798 0 0 1-.548.808s0-.043.068-.123c-.821 1.196-2.609 2.139-2.917 2.608l-.382.283-.407.247c1.104-.555-.111.179.357 0-.425.241-1.153.512-.616.228l.092-.037c.068-.105-.277.062-.616.241a2.278 2.278 0 0 1-.771.277 22.018 22.018 0 0 1-6.949 1.511l.265.068-.789.061c-.21 0-.284-.049.284-.092a5.364 5.364 0 0 0-.962.105c-1.11 0 .431-.105.092-.105h-.462.105c-.358.067-.722.09-1.086.068-.431-.044-.221-.068-.388-.081a1.02 1.02 0 0 0-.259 0c-.327-.03-.666 0-.993-.086.13.037.259.08.389.105-.444 0-.925-.13-.481 0-.327-.111-1.233-.222-2.121-.456a7.67 7.67 0 0 1-1.19-.352l-.685-.24a7.335 7.335 0 0 1-1.751-.913c.148.117.21.234-.326-.142.067 0 .043-.037-.037-.104a2.98 2.98 0 0 1-.352-.321 5.733 5.733 0 0 1-.771-.839c.241.407-1.134-1.449-.752-.82-.271-.474 0-.049-.166-.419a9.048 9.048 0 0 1-1.338-4.193s0 .247-.056-.092v-.426l.043-.419a4.85 4.85 0 0 1 0-.869c0 .08-.03.203 0 0a11.03 11.03 0 0 1 1.554-4.489l.685-.999.832-.888c.274-.297.578-.566.906-.801.308-.26.631-.501.968-.722-.382.216-.129.068.154-.105-.184.111 0 0-.037 0l1.16-.684c.203-.142 1.319-.586 1.442-.654l-.388.173c.518-.228-.74.302-.666.259a9.003 9.003 0 0 0-1.067.567c-.452.225-.879.5-1.27.82-.185.136.154-.129.05-.055-.204.173-.457.37-.925.727l.049-.043a11.19 11.19 0 0 0-2.62 3.342l.055-.068-.327.617c-.179.425.524-1.017.364-.617-.395.413-1.023 2.658-1.079 3.022-.111.616.068-.173-.043.437a.804.804 0 0 0-.043.167v.154a2.726 2.726 0 0 1-.074.617v-.395c0 .265-.043.617-.05.974-.006.358.062.617.068.709l-.037-.616c.043.425.074.875.136 1.331.062.457.197.919.32 1.369.124.45.327.888.518 1.301.192.413.432.79.66 1.135a.431.431 0 0 1-.055-.117 9.92 9.92 0 0 0 1.553 1.849l-.043-.03c.111.08.222.203.37.302l.457.308c-.303-.179.517.419.123.179.258.195.545.349.851.456.111.037.166.043.585.204l.173.129c.332.074.66.169.98.284-.542-.155.395.203-.215.03a6.687 6.687 0 0 0 1.634.475c.431.099.764.136 1.085.247.339 0 .031-.068-.315-.123a1.764 1.764 0 0 1-.536-.118c-.148-.055 0-.043.222 0 .222.044.555.062.777.105a8.856 8.856 0 0 0 1.911.346h-.24c.438.061.851 0 1.387.061.296-.074.691 0 .777-.092h-1.067c.617-.037 1.166-.099 2.158-.142-.08 0-.37.068-.573.099.29 0 .555-.062.857-.056-.636.119-1.283.179-1.93.179.314.043 1.233-.08.9 0 .457-.173 1.147-.049 1.918-.247l-.043.068c.123-.031.376-.092.616-.123l-.401.135c.617-.172 1.234-.092 1.85-.283-1.233.259-.296 0-.832.043a5.992 5.992 0 0 1 1.233-.204c.477-.008.948-.1 1.393-.271-.228.08-.875.222-.524.086.352-.135.765-.191.975-.215 1.122-.358-.198 0 .271-.198.413-.03.53-.222.999-.431l.031.061c1.233-.468.289-.222 1.387-.715l-.413.315.549-.309-.081.13c.586-.37.796-.426 1.369-.789-.16.043 0-.155.5-.475.357-.204-.13.203.53-.321a1.233 1.233 0 0 1-.617.475c0 .037-.135.136-.154.173.216-.116.422-.248.617-.395l.499-.432a2.992 2.992 0 0 1-.265.198c.296-.29.617-.568.882-.864.148-.123.068 0-.037.124.179-.173.265-.333.512-.617 0 .105.037.13-.303.537l.759-.919c.086 0 .425-.438.351-.302.224-.322.43-.655.617-.999.197-.382.382-.808.555-1.233.021-.107.05-.212.086-.315.317-.784.488-1.62.506-2.466l.129-.549c0-.764-.117.74-.185-.524-.074-.888.074-.339.08-.653-.086-.444-.314-1.184-.45-1.998.13.339.167.524.235.771Zm-5.328-7.399c.206.089.399.205.574.345a1.28 1.28 0 0 1-.574-.321v-.024Zm-13.565-1.006a2.12 2.12 0 0 1 .549-.129 3.8 3.8 0 0 1-.542.154l-.007-.025Zm3.984 22.771c-.407 0-.266 0 0 0Zm.807-.037h.043c-.146.025-.295.04-.444.043.136.002.271-.017.401-.055v.012Zm-3.409-1.11h.16c-.358.006-.259 0-.167-.012l.007.012Z" fill="#3E494E"/><path d="M162.66 150.449a.122.122 0 0 1 .08 0c.068 0 .068-.013-.08 0ZM153.894 171.24a1.531 1.531 0 0 1-.222-.247s.025.068.222.247ZM170.134 172.861c-.16.05-.327.087-.493.124.24-.056.333-.056.456-.081-.019-.012-.117 0 .037-.043ZM174.42 171.542l.204-.124c-.309.155-.494.284-.204.124ZM170.639 172.886c.241-.027.477-.087.703-.179h-.062c.086-.061-.278.062-.641.179ZM171.424 172.676l.314-.104c.037-.037-.129.037-.314.104ZM166.958 173.478c.173 0 .099-.062.198-.055.098.006-1.129.191-.198.055ZM170.954 172.929l-.136-.012-.191.092.327-.08ZM168.143 173.521l.58-.08s.061 0 .148-.043c-.352.055-.746.111-.728.123ZM168.871 173.398c.185-.037.358-.08.456-.111l-.456.111ZM170.19 173.157l-.166.031-.401.087.567-.118ZM161.909 173.91c-.216 0-.426 0-.617-.044-.068 0 .105.05.339.062.235.012.376 0 .278-.018ZM163.832 174.076a1.12 1.12 0 0 1-.277-.037v.074l.277-.037ZM161.971 174.088c-.062.037-.931 0-.117.05.055-.019.709-.019.117-.05ZM153.314 170.395l.111.117.081-.111-.192-.006ZM149.935 162.712c-.03.783.074.185.062.888v-.197c0-.142 0-.284.031-.191-.012-.463.006-.715-.093-.5ZM158.775 152.847l.444-.197-.289.123-.155.074ZM159.627 152.471l.105-.043.265-.117-.37.16ZM173.588 151.065h-.043c.119.081.243.155.37.222a3.03 3.03 0 0 0-.327-.222ZM178.618 155.603l-.061-.099.037.235.024-.136ZM180.469 161.017c0-.241-.062-.512-.08-.753.08.512-.025.82.08.753Z" fill="#3E494E"/><path d="M54.383 36.59H39.135v23.474h15.248V36.59Z" fill="#BF3855"/><path opacity=".1" d="M54.383 36.59H39.135v23.474h15.248V36.59Z" fill="#000"/><path d="M40.46 60.063h-.308v194.113h.309V60.064ZM42.304 60.063h-.308v194.113h.308V60.064ZM44.148 60.063h-.308v194.113h.308V60.064ZM45.99 60.063h-.308v194.113h.308V60.064ZM47.84 60.063h-.309v194.113h.309V60.064ZM49.683 60.063h-.308v194.113h.308V60.064ZM51.527 60.063h-.308v194.113h.308V60.064ZM53.377 60.063h-.309v194.113h.309V60.064Z" fill="#C7C7C7"/><path opacity=".1" d="M82.116 46.61a4.014 4.014 0 1 1-2.477-3.71 4.007 4.007 0 0 1 2.477 3.71Z" fill="#000"/><path d="M80.52 46.61a2.43 2.43 0 1 1-4.859 0 2.43 2.43 0 0 1 4.86 0Z" fill="#263238"/><path opacity=".1" d="M99.05 50.624a4.014 4.014 0 1 0 0-8.028 4.014 4.014 0 0 0 0 8.028Z" fill="#000"/><path d="M101.484 46.61a2.43 2.43 0 1 1-4.859-.002 2.43 2.43 0 0 1 4.859.002Z" fill="#263238"/><path opacity=".1" d="M124.008 46.61a4.014 4.014 0 1 1-8.028.001 4.014 4.014 0 0 1 8.028-.001Z" fill="#000"/><path d="M122.449 46.61a2.433 2.433 0 0 1-4.135 1.73 2.43 2.43 0 0 1 3.41-3.461 2.43 2.43 0 0 1 .725 1.73Z" fill="#263238"/><path opacity=".1" d="M145.008 46.61a4.014 4.014 0 1 1-4.014-4.014 4.005 4.005 0 0 1 3.71 2.477c.202.487.305 1.01.304 1.537Z" fill="#000"/><path d="M143.411 46.61a2.428 2.428 0 1 1-2.429-2.43 2.428 2.428 0 0 1 2.246 1.499c.122.295.184.611.183.93Z" fill="#263238"/><path opacity=".1" d="M162.014 50.624a4.014 4.014 0 1 0 0-8.028 4.014 4.014 0 0 0 0 8.028Z" fill="#000"/><path d="M164.443 46.61a2.43 2.43 0 1 1-4.859-.002 2.43 2.43 0 0 1 4.859.002Z" fill="#263238"/><path opacity=".1" d="M182.91 50.624a4.014 4.014 0 1 0 0-8.028 4.014 4.014 0 0 0 0 8.028Z" fill="#000"/><path d="M185.339 46.61a2.428 2.428 0 1 1-2.429-2.43 2.423 2.423 0 0 1 2.429 2.43Z" fill="#263238"/><path opacity=".1" d="M203.873 50.624a4.014 4.014 0 1 0 0-8.028 4.014 4.014 0 0 0 0 8.028Z" fill="#000"/><path d="M206.304 46.61a2.428 2.428 0 1 1-4.857.001 2.428 2.428 0 0 1 4.857-.002Z" fill="#263238"/><path opacity=".1" d="M224.905 50.624a4.015 4.015 0 1 0-.001-8.03 4.015 4.015 0 0 0 .001 8.03Z" fill="#000"/><path d="M227.335 46.61a2.428 2.428 0 1 1-4.857.001 2.428 2.428 0 0 1 4.857-.002Z" fill="#263238"/><path opacity=".1" d="M249.827 46.61a4.015 4.015 0 1 1-8.03-.002 4.015 4.015 0 0 1 8.03.002Z" fill="#000"/><path d="M248.232 46.61a2.43 2.43 0 1 1-4.859-.002 2.43 2.43 0 0 1 4.859.002Z" fill="#263238"/><path opacity=".1" d="M270.823 46.61a4.015 4.015 0 1 1-8.03-.002 4.015 4.015 0 0 1 8.03.002Z" fill="#000"/><path d="M269.238 46.61a2.43 2.43 0 1 1-4.859-.002 2.43 2.43 0 0 1 4.859.002Z" fill="#263238"/><path opacity=".1" d="M291.731 46.61a4.014 4.014 0 1 1-4.014-4.014 4.008 4.008 0 0 1 4.014 4.014Z" fill="#000"/><path d="M290.159 46.61a2.424 2.424 0 0 1-1.491 2.24 2.429 2.429 0 1 1-.975-4.67 2.424 2.424 0 0 1 2.466 2.43Z" fill="#263238"/><path opacity=".1" d="M312.725 46.61a4.014 4.014 0 1 1-4.014-4.014 4.005 4.005 0 0 1 3.71 2.477c.202.487.305 1.01.304 1.537Z" fill="#000"/><path d="M311.122 46.61a2.428 2.428 0 1 1-2.429-2.43 2.428 2.428 0 0 1 2.246 1.499c.122.295.184.611.183.93Z" fill="#263238"/><path opacity=".1" d="M329.662 50.624a4.014 4.014 0 1 0 0-8.028 4.014 4.014 0 0 0 0 8.028Z" fill="#000"/><path d="M332.085 46.61a2.428 2.428 0 1 1-2.429-2.43 2.431 2.431 0 0 1 1.72.71 2.438 2.438 0 0 1 .709 1.72Z" fill="#263238"/><path d="M80.077 38.126c0 2.003-.222 8.527-.222 8.527 0 2.269-3.508 2.263-3.508 0V36.7c0-5.019-2.19-6.825-4.36-6.825-2.712 0-4.316 3.268-4.316 6.708h-3.527c0-7.812 3.737-10.827 7.578-10.827 5.84 0 8.355 3.897 8.355 12.369ZM101.04 38.126c0 2.003-.222 8.527-.222 8.527 0 2.269-3.502 2.263-3.502 0V36.7c0-5.019-2.183-6.825-4.36-6.825-2.713 0-4.316 3.268-4.316 6.708h-3.527c0-7.812 3.737-10.827 7.578-10.827 5.833 0 8.349 3.897 8.349 12.369ZM122.011 38.126c0 2.003-.222 8.527-.222 8.527 0 2.269-3.508 2.263-3.508 0V36.7c0-5.019-2.189-6.825-4.366-6.825-2.713 0-4.316 3.268-4.316 6.708h-3.527c0-7.812 3.737-10.827 7.578-10.827 5.839 0 8.361 3.897 8.361 12.369ZM142.974 38.126c0 2.003-.222 8.527-.222 8.527 0 2.269-3.509 2.263-3.509 0V36.7c0-5.019-2.189-6.825-4.359-6.825-2.713 0-4.316 3.268-4.316 6.708h-3.527c0-7.812 3.736-10.827 7.578-10.827 5.839 0 8.355 3.897 8.355 12.369ZM163.938 38.126c0 2.003-.222 8.527-.222 8.527 0 2.269-3.508 2.263-3.508 0V36.7c0-5.019-2.183-6.825-4.359-6.825-2.713 0-4.316 3.268-4.316 6.708h-3.527c0-7.812 3.736-10.827 7.578-10.827 5.839 0 8.354 3.897 8.354 12.369ZM184.907 38.126c0 2.003-.228 8.527-.228 8.527 0 2.269-3.502 2.263-3.502 0V36.7c0-5.019-2.189-6.825-4.365-6.825-2.713 0-4.316 3.268-4.316 6.708h-3.527c0-7.812 3.73-10.827 7.578-10.827 5.839 0 8.36 3.897 8.36 12.369ZM205.872 38.126c0 2.003-.222 8.527-.222 8.527 0 2.269-3.508 2.263-3.508 0V36.7c0-5.019-2.189-6.825-4.365-6.825-2.713 0-4.317 3.268-4.317 6.708h-3.526c0-7.812 3.736-10.827 7.577-10.827 5.846 0 8.361 3.897 8.361 12.369ZM226.835 38.126c0 2.003-.222 8.527-.222 8.527 0 2.269-3.508 2.263-3.508 0V36.7c0-5.019-2.183-6.825-4.36-6.825-2.713 0-4.316 3.268-4.316 6.708h-3.527c0-7.812 3.737-10.827 7.578-10.827 5.839 0 8.355 3.897 8.355 12.369ZM247.806 38.126c0 2.003-.228 8.527-.228 8.527 0 2.269-3.502 2.263-3.502 0V36.7c0-5.019-2.183-6.825-4.36-6.825-2.713 0-4.316 3.268-4.316 6.708h-3.533c0-7.812 3.737-10.827 7.584-10.827 5.833 0 8.355 3.897 8.355 12.369ZM268.769 38.126c0 2.003-.222 8.527-.222 8.527 0 2.269-3.509 2.263-3.509 0V36.7c0-5.019-2.188-6.825-4.365-6.825-2.713 0-4.316 3.268-4.316 6.708h-3.527c0-7.812 3.737-10.827 7.578-10.827 5.845 0 8.361 3.897 8.361 12.369ZM289.733 38.126c0 2.003-.222 8.527-.222 8.527 0 2.269-3.508 2.263-3.508 0V36.7c0-5.019-2.183-6.825-4.359-6.825-2.713 0-4.316 3.268-4.316 6.708h-3.527c0-7.812 3.736-10.827 7.578-10.827 5.839 0 8.354 3.897 8.354 12.369ZM310.702 38.126c0 2.003-.228 8.527-.228 8.527 0 2.269-3.502 2.263-3.502 0V36.7c0-5.019-2.183-6.825-4.359-6.825-2.713 0-4.316 3.268-4.316 6.708h-3.533c0-7.812 3.736-10.827 7.578-10.827 5.839 0 8.36 3.897 8.36 12.369ZM331.667 38.126c0 2.003-.222 8.527-.222 8.527 0 2.269-3.508 2.263-3.508 0V36.7c0-5.019-2.189-6.825-4.366-6.825-2.712 0-4.316 3.268-4.316 6.708h-3.526c0-7.812 3.736-10.827 7.577-10.827 5.846 0 8.361 3.897 8.361 12.369Z" fill="#37474F"/><path d="M4.885 254.176c124.303-.376 263.737-.382 388.041 0-124.304.383-263.738.377-388.041 0Z" fill="#263238"/><path d="M214.065 142.526h-24.047a12.887 12.887 0 0 1-1.19-4.785v-19.268h24.047v19.515c0 1.948 1.19 4.538 1.19 4.538Z" fill="#37474F"/><path d="M192.959 124.158c2.824-.235 5.654-.29 8.484-.303 2.83-.012 5.654.068 8.484.303-2.83.234-5.654.283-8.484.296-2.83.012-5.66-.068-8.484-.296ZM192.959 127.327c2.54-.234 5.087-.284 7.633-.296 2.547-.012 5.087.062 7.627.296-2.54.234-5.086.29-7.627.296-2.54.006-5.093-.062-7.633-.296ZM192.959 130.502c2.226-.228 4.452-.284 6.671-.296 2.22-.012 4.452.062 6.678.296-2.226.234-4.452.29-6.678.302a62.007 62.007 0 0 1-6.671-.302ZM192.959 133.672c2.824-.235 5.654-.29 8.484-.303 2.83-.012 5.654.068 8.484.303-2.83.234-5.654.283-8.484.295-2.83.013-5.66-.067-8.484-.295Z" fill="#fff"/><path d="M180.207 206.959h-24.046a12.879 12.879 0 0 1-1.19-4.791v-19.256h24.046v19.515c0 1.93 1.19 4.532 1.19 4.532Z" fill="#455A64"/><path d="M159.102 188.578c2.824-.234 5.654-.29 8.484-.302 2.83-.012 5.654.068 8.484.302-2.83.228-5.654.284-8.484.296-2.83.013-5.679-.068-8.484-.296ZM159.102 191.747c2.54-.234 5.086-.283 7.627-.296 2.54-.012 5.093.062 7.633.296-2.54.235-5.087.29-7.633.296-2.547.007-5.087-.061-7.627-.296ZM159.102 194.917c2.219-.228 4.445-.284 6.671-.296 2.226-.013 4.452.061 6.678.296-2.226.234-4.452.289-6.678.302-2.226.012-4.452-.068-6.671-.302ZM159.102 198.092c2.824-.234 5.654-.29 8.484-.302 2.83-.012 5.654.068 8.484.302-2.83.228-5.654.284-8.484.296-2.83.012-5.679-.062-8.484-.296Z" fill="#fff"/><path d="M145.587 142.094H121.54a12.843 12.843 0 0 1-1.196-4.791v-19.262h24.047v19.515c0 1.948 1.196 4.538 1.196 4.538Z" fill="#A6A6A6"/><path d="M124.475 123.72c2.83-.234 5.66-.29 8.49-.302 2.83-.013 5.654.068 8.484.302-2.83.228-5.66.283-8.484.296-2.824.012-5.66-.062-8.49-.296ZM124.475 126.895c2.546-.234 5.093-.283 7.633-.296 2.54-.012 5.087.062 7.633.296-2.546.234-5.087.284-7.633.296-2.547.012-5.087-.062-7.633-.296ZM124.475 130.064c2.225-.228 4.451-.283 6.677-.296 2.226-.012 4.452.062 6.678.296-2.226.235-4.452.29-6.678.302-2.226.013-4.452-.067-6.677-.302ZM124.475 133.24c2.83-.234 5.66-.29 8.49-.302 2.83-.013 5.654.068 8.484.302-2.83.228-5.66.283-8.484.296-2.824.012-5.66-.068-8.49-.296Z" fill="#fff"/><path d="M240.793 239.187h-19.114a33.179 33.179 0 0 1-.413-4.784v-19.268h24.046v19.514c-.006 1.949-4.519 4.538-4.519 4.538Z" fill="#BF3855"/><path opacity=".2" d="M245.306 234.643c0 1.899-4.242 4.378-4.507 4.532.703-.475.586-4.242.586-4.242s3.853-.499 3.921-.29Z" fill="#000"/><path d="M224.799 220.819c2.824-.234 5.654-.289 8.484-.302 2.83-.012 5.654.068 8.484.302-2.83.235-5.654.284-8.484.296-2.83.013-5.66-.067-8.484-.296ZM224.799 223.989c2.22-.235 4.445-.284 6.671-.296 2.226-.013 4.452.061 6.678.296-2.22.212-4.448.311-6.678.296-2.226-.013-4.451-.062-6.671-.296ZM224.799 227.158c2.22-.228 4.445-.284 6.671-.296a61.908 61.908 0 0 1 6.678.296c-2.226.234-4.452.29-6.678.302-2.226.012-4.451-.068-6.671-.302Z" fill="#fff"/><path d="M305.793 174.039h-19.114a33.287 33.287 0 0 1-.413-4.791v-19.262h24.046v19.515c0 1.949-4.519 4.538-4.519 4.538Z" fill="#BF3855"/><path opacity=".2" d="M310.306 169.495c0 1.899-4.242 4.378-4.501 4.532.703-.475.579-4.242.579-4.242s3.854-.506 3.922-.29Z" fill="#000"/><path d="M289.799 155.671c2.824-.234 5.654-.29 8.484-.302 2.83-.012 5.66.068 8.484.302-2.824.228-5.654.284-8.484.296-2.83.013-5.66-.068-8.484-.296ZM289.799 158.865c2.226-.234 4.452-.284 6.671-.296a65.58 65.58 0 0 1 6.678.296c-2.226.234-4.452.284-6.678.296a66.806 66.806 0 0 1-6.671-.296ZM289.799 162.01c2.226-.228 4.452-.284 6.671-.296 2.22-.013 4.452.061 6.678.296-2.226.234-4.452.289-6.678.302-2.226.012-4.464-.068-6.671-.302Z" fill="#fff"/><path d="M367.984 216.072s10.384-2.35 16.075-7.597c5.691-5.247 8.866-14.631 8.866-14.631a88.44 88.44 0 0 0-11.641 3.083 19.556 19.556 0 0 0-3.527 4.982 24.09 24.09 0 0 1 0-3.564 16.002 16.002 0 0 0-3.699 2.244c-4.742 4.107-6.074 15.483-6.074 15.483Z" fill="#BF3855"/><path d="M386.443 198.407c1.412-.981 2.855-1.924 4.26-2.911a.077.077 0 0 0 .023-.021.108.108 0 0 0 .013-.029.08.08 0 0 0 0-.031.064.064 0 0 0-.011-.03.077.077 0 0 0-.022-.022.072.072 0 0 0-.028-.013.115.115 0 0 0-.032-.001.081.081 0 0 0-.029.012 130.332 130.332 0 0 0-7.861 5.093 70.482 70.482 0 0 0-2.627 1.93l.179-.303c.314-.524.616-1.035.968-1.547a22.109 22.109 0 0 1 2.207-2.941c0-.031 0-.08-.049-.05-.808.931-1.616 1.85-2.355 2.843-.352.475-.679.956-.987 1.455-.16.259-.321.518-.469.783l-.154.271a59.008 59.008 0 0 0-3.897 3.318c-.77.715-1.51 1.461-2.232 2.225.401-1.233.753-2.528 1.234-3.767 0-.037-.056-.055-.068 0-.457 1.295-.95 2.602-1.301 3.934a37.445 37.445 0 0 0-2.269 2.676l.037-.173c.119-.485.242-.972.37-1.461.252-.937.53-1.85.844-2.793a16.216 16.216 0 0 1 2.794-5.266c0-.037-.001-.086-.056-.049a20.288 20.288 0 0 0-3.995 8.287c-.111.444-.216.888-.315 1.332-.055.234-.117.474-.154.721a38.65 38.65 0 0 0-.919 1.289 45.168 45.168 0 0 0-4.39 8.632 98.385 98.385 0 0 0-3.329 10.371.05.05 0 0 0 .009.037.06.06 0 0 0 .03.022.055.055 0 0 0 .038-.002.057.057 0 0 0 .027-.026c2.035-6.08 4.107-12.24 7.584-17.672a41.054 41.054 0 0 1 2.368-3.311 19.568 19.568 0 0 0 5.05-1.011 22.153 22.153 0 0 0 5.062-2.466 29.534 29.534 0 0 0 2.59-1.961l.008-.01c.001-.004.003-.008.003-.013 0-.004 0-.008-.002-.012a.024.024 0 0 0-.006-.011.025.025 0 0 0-.01-.008.028.028 0 0 0-.013-.003.025.025 0 0 0-.012.001l-.011.007a20.942 20.942 0 0 1-4.76 2.879 25.566 25.566 0 0 1-5.235 1.751c-.765.173-1.542.296-2.325.401a44.395 44.395 0 0 1 3.083-3.391c.352-.352.715-.685 1.073-1.024a24.963 24.963 0 0 1 3.835-2.201c1.702-.82 3.379-1.689 5.062-2.546.95-.488 1.893-.981 2.849-1.449.043 0 0-.081-.037-.056-1.708.82-3.441 1.591-5.161 2.38-1.622.746-3.262 1.492-4.815 2.362l-.198.117a68.57 68.57 0 0 1 4.353-3.515 108.821 108.821 0 0 1 4.181-3.033Z" fill="#263238"/><path d="M385.852 203.759c-.845.369-1.708.702-2.54 1.091-.845.41-1.668.863-2.467 1.356-.037 0 0 .068.037.05.827-.395 1.665-.765 2.467-1.178.801-.413 1.671-.869 2.528-1.233.037-.037.018-.105-.025-.086Z" fill="#263238"/><path d="M334.256 164.081a14.87 14.87 0 0 1 3.083 8.632c.031.932-.117 2.226-.222 3.749a24.724 24.724 0 0 1 6.782 5.79 12.293 12.293 0 0 0-6.85-1.634c.053 1.037.187 2.067.401 3.083 1.51.002 3.005.297 4.402.869a9.868 9.868 0 0 0-3.971.79c1.85 5.888 7.35 11.937 22.543 14.502a31.862 31.862 0 0 0-2.695-21.371c-4.532-8.941-23.473-14.41-23.473-14.41Z" fill="#BF3855"/><path d="M365.696 224.741c-.263-2.516-.59-5.023-.98-7.523a150.525 150.525 0 0 0-3.083-14.865 59.317 59.317 0 0 0-2.195-6.783 9.95 9.95 0 0 0 .055-1.233v-1.461c0-.974-.062-1.943-.142-2.911a35.433 35.433 0 0 0-.931-5.697c-.277-1.085-.616-2.145-.918-3.218a.04.04 0 0 0-.014-.017.047.047 0 0 0-.02-.006.047.047 0 0 0-.021.006.037.037 0 0 0-.013.017 42.42 42.42 0 0 1 1.122 5.685c.27 1.89.439 3.794.506 5.703 0 .518.03 1.042.03 1.566v.672a48.143 48.143 0 0 0-2.558-5.302 64.315 64.315 0 0 0-5.198-7.776 3.265 3.265 0 0 0-.124-.85l-.222-1.018a47.914 47.914 0 0 0-.517-2.065c-.377-1.382-.876-2.707-1.308-4.07a.033.033 0 0 0-.013-.016.037.037 0 0 0-.021-.006.036.036 0 0 0-.02.006.033.033 0 0 0-.013.016c.4 1.35.665 2.744.974 4.113.154.678.302 1.356.45 2.034.074.34.148.679.216 1.018v.074c-.617-.777-1.233-1.54-1.85-2.288-2.904-3.403-6.086-6.542-9.286-9.655-.394-.383-.795-.759-1.196-1.135 0 0-.08 0-.049.049 3.083 3.194 6.073 6.419 8.928 9.798.678.822 1.344 1.644 1.998 2.466l-1.036-.69a44.388 44.388 0 0 0-2.701-1.653 68.121 68.121 0 0 0-2.799-1.492c-.95-.468-2.016-.875-2.954-1.424-.037 0-.074.043 0 .061.957.448 1.882.961 2.769 1.536.925.549 1.85 1.103 2.756 1.677.906.573 1.788 1.122 2.676 1.702.74.481 1.467 1.005 2.232 1.449a71.901 71.901 0 0 1 4.865 7.078 51.787 51.787 0 0 1 2.515 4.772l-.542-.234-1.394-.617c-.888-.4-1.788-.783-2.682-1.177-1.708-.74-3.434-1.418-5.105-2.232a23.186 23.186 0 0 1-2.732-1.517c-.037 0-.067.037 0 .062 3.083 2.152 6.604 3.662 10.051 5.185l1.498.666c.407.179.82.382 1.233.543a52.896 52.896 0 0 1 2.516 7.072 140.965 140.965 0 0 1 3.305 14.699c.875 4.933 1.461 9.952 1.917 14.971.056.616.111 1.233.185 1.85a.197.197 0 0 0 .337.139.197.197 0 0 0 .058-.139c-.025-2.535-.29-5.05-.555-7.615Z" fill="#263238"/><path d="M356.454 182.794c-.278-1.541-.685-3.052-1.104-4.562.003-.006.004-.012.003-.018a.027.027 0 0 0-.006-.017.04.04 0 0 0-.013-.013.04.04 0 0 0-.018-.004.033.033 0 0 0-.017.004.044.044 0 0 0-.014.013.05.05 0 0 0-.006.017l.003.018c.383 1.486.66 2.996.938 4.501.277 1.504.536 3.083.752 4.624h.043a39.341 39.341 0 0 0-.561-4.563ZM349.911 186.981a28.061 28.061 0 0 0-3.305-1.849 59.374 59.374 0 0 0-1.677-.833c-.561-.271-1.178-.512-1.752-.801-.037 0-.074.043 0 .061.555.278 1.08.617 1.628.913l1.684.925a36.903 36.903 0 0 0 3.366 1.738.079.079 0 0 0 .051-.015.084.084 0 0 0 .032-.042.088.088 0 0 0-.027-.097Z" fill="#263238"/><path opacity=".1" d="M368.174 198.092s9.606-2.294 14.015-8.737c4.211-6.166 5.549-16.648 5.678-17.573-.172.851-2.151 10.02-8.693 14.287-5.007 3.274-9.847 5.962-11 12.023Z" fill="#263238"/><path d="M377.041 181.494a12.271 12.271 0 0 0-3.545 5.833h.031a14.304 14.304 0 0 1 3.558-5.79c.012-.025.012-.074-.044-.043Z" fill="#263238"/><path d="M368.174 198.419s9.607-2.294 14.015-8.744c4.211-6.165 5.549-16.647 5.679-17.566a.321.321 0 0 0 0-.062s-4.606 6.548-9.434 8.219c-4.828 1.671-11.653 7.449-10.26 18.153Z" fill="#BF3855"/><path d="M386.179 175.334a39.331 39.331 0 0 1-2.965 5.074 20.603 20.603 0 0 1-3.953 4.07c-1.307 1.036-2.688 1.973-4.007 2.99v-.049c.246-.364.511-.721.783-1.073a34.289 34.289 0 0 1 1.757-2.022c1.196-1.295 2.411-2.565 3.484-3.971a14.695 14.695 0 0 0 1.541-2.466c0-.044-.049-.062-.068 0-1.56 3.249-4.667 5.327-6.893 8.065-.315.394-.617.795-.888 1.233a5.04 5.04 0 0 0-.549.98 20.105 20.105 0 0 0-3.28 3.311c.086-.625.216-1.243.388-1.85a9.412 9.412 0 0 1 1.018-2.435c0-.037-.037-.08-.062-.037-.466.759-.84 1.57-1.116 2.417a8.234 8.234 0 0 0-.351 2.072 18.273 18.273 0 0 0-1.295 2.016 50.959 50.959 0 0 1 .764-3.478 17.09 17.09 0 0 1 2.313-5.407c0-.037-.031-.08-.056-.043a20.636 20.636 0 0 0-2.565 5.296 33.1 33.1 0 0 0-.764 2.867c-.105.475-.198.95-.29 1.425-.05.246-.099.499-.142.752a34.396 34.396 0 0 0-2.214 6.511 95.44 95.44 0 0 0-2.047 12.147 101.438 101.438 0 0 0-.666 12.899c0 .536.044 1.079.074 1.615 0 .142.216.16.222 0 .093-2.127.148-4.261.272-6.394.123-2.133.314-4.254.542-6.382a113.047 113.047 0 0 1 2.004-12.418c.777-3.514 1.788-7.047 3.7-10.124a19.156 19.156 0 0 1 3.465-4.125c1.344-1.233 2.818-2.269 4.242-3.385a23.246 23.246 0 0 0 3.891-3.743 30.604 30.604 0 0 0 3.083-4.932c.228-.432.456-.87.69-1.301.019-.105-.043-.148-.062-.105Z" fill="#263238"/><path d="M332.918 194.171s-.154 13.651 8.016 17.591c8.169 3.94 12.541.66 18.09 1.979-.215-.327-4.174-6.018-10.482-7.584-6.48-1.622-13.657-6.301-15.624-11.986Z" fill="#BF3855"/><path opacity=".2" d="M332.918 194.171s-.154 13.651 8.016 17.591c8.169 3.94 12.541.66 18.09 1.979a30.653 30.653 0 0 0-9.248-2.738c-5.198-.629-15.033-3.983-16.858-16.832Z" fill="#000"/><path d="M359.556 213.655a13.803 13.803 0 0 0-3.25-2.195c-.172-.087-.351-.154-.53-.228a3.33 3.33 0 0 0-.278-.315c-.24-.253-.499-.499-.764-.727a10.949 10.949 0 0 0-1.646-1.184c-1.351-.796-2.83-1.357-4.218-2.091-.037 0-.074.037-.031.062.685.352 1.345.746 2.01 1.135.666.388 1.308.733 1.937 1.14.568.37 1.108.782 1.615 1.233.142.124.284.259.419.401a21.311 21.311 0 0 0-2.756-.733c-1.498-.303-3.009-.518-4.501-.833a21.871 21.871 0 0 1-2.164-.586c-.678-.548-1.35-1.091-1.992-1.677a16.555 16.555 0 0 1-2.115-2.343c0-.037-.086 0-.055.037a24.963 24.963 0 0 0 3.342 3.7 21.97 21.97 0 0 1-1.042-.432 16.845 16.845 0 0 1-6.955-5.79c0-.037-.087 0-.062.037a19.124 19.124 0 0 0 5.629 5.402 16.984 16.984 0 0 0 3.558 1.683c1.447.448 2.921.798 4.415 1.048 1.462.239 2.904.583 4.316 1.03a12.82 12.82 0 0 1 3.625 1.905 16.967 16.967 0 0 1 4.89 6.067 30.298 30.298 0 0 1 2.694 9.983c0 .142.247.142.235 0-.37-5.778-1.905-11.74-6.326-15.729Z" fill="#263238"/><path d="M350.079 209.203a4.675 4.675 0 0 0-1.678-1.517 6.17 6.17 0 0 1-1.991-1.652c-.031-.037-.093 0-.062.037a6.728 6.728 0 0 0 1.764 1.578 6.058 6.058 0 0 1 1.917 1.591.032.032 0 0 0 .021.012.029.029 0 0 0 .022-.006.028.028 0 0 0 .012-.02.03.03 0 0 0-.005-.023Z" fill="#263238"/><path d="m354.412 223.729.37 7.51 1.141 22.937h17.122l1.135-22.937.376-7.51h-20.144Z" fill="#455A64"/><path d="m354.412 223.729.37 7.51h19.398l.376-7.51h-20.144Z" fill="#263238"/><path d="M353.216 227.762h22.542v-7.159h-22.542v7.159Z" fill="#455A64"/><path d="M331.792 78.71c-.389 6.782-.901 13.743-2.325 20.39-1.11 5.179-3.798 9.248-9.384 9.914-5.186.617-12.369-.283-16.26-4.112-1.812-1.782-2.256-4.064-1.849-6.518.567-3.41 5.407-21.888 6.881-27.653a107.86 107.86 0 0 1 3.286-10.402c3.12-8.54 10.599-7.732 14.366-6.049a7.664 7.664 0 0 1 2.587 1.885 7.665 7.665 0 0 1 1.594 2.776c2.164 6.142 1.461 13.436 1.104 19.768Z" fill="#263238"/><path d="M318.171 54.663c-4.532 1.523-6.091 6.11-7.608 10.204-2.115 5.703-4.131 11.438-5.864 17.264-.839 2.8-1.609 5.624-2.294 8.466-.659 2.72-1.529 5.605-1.658 8.41-.216 4.649 3.767 7.22 7.775 8.336a.155.155 0 0 0 .111-.019.161.161 0 0 0-.013-.283c-2.275-.721-4.581-1.634-6.116-3.557-1.973-2.467-1.387-5.328-.802-8.176.999-4.847 2.276-9.631 3.7-14.367 1.424-4.735 3.083-9.421 4.748-14.082 1.609-4.434 3.082-10.34 8.015-12.129.074-.067.056-.117.006-.067ZM332.119 64.102c-.42-3.613-1.85-7.25-5.457-8.694 4.618 2.066 5.198 7.436 5.339 11.882.155 4.686.124 9.366-.067 14.046-.179 4.5-.463 9.033-1.055 13.497-.616 4.822-2.028 9.249-5.327 12.911-.068.074.031.185.105.117 3.175-2.904 4.606-7.238 5.302-11.37a124.771 124.771 0 0 0 1.375-16.549c.179-5.216.37-10.63-.215-15.84Z" fill="#263238"/><path d="m346.6 214.53-.061 26.02c-.148 4.803-.364 9.015-.678 11.179a3.302 3.302 0 0 1-.401 1.51v.031c-1.461.925-39.881.857-41.225.407-1.344-.45-.148-4.316 1.344-5.494 1.492-1.177 16.216-7.744 16.216-7.744l.302-25.983 24.503.074Z" fill="#F7A9A0"/><path d="m346.724 235.395-.185 5.155c-.148 4.803-.364 9.015-.678 11.179a.115.115 0 0 1 0 .037 6.652 6.652 0 0 1-.401 1.473v.031c-1.461.925-39.881.857-41.225.407-1.344-.45-.148-4.316 1.344-5.494 1.492-1.177 16.216-7.744 16.216-7.744l.117-5.235 24.812.191Z" fill="#fff"/><path d="M319.415 240.39c2.565-.352 5.66.191 7.516 2.102.074.074 0 .173-.111.142a36.137 36.137 0 0 0-7.399-1.924.14.14 0 0 1-.061-.011.153.153 0 0 1-.089-.085.159.159 0 0 1-.002-.122.168.168 0 0 1 .085-.089.159.159 0 0 1 .061-.013ZM317.524 241.407c2.572-.351 5.661.191 7.523 2.103.068.074-.037.172-.117.142a36.042 36.042 0 0 0-7.461-1.935.16.16 0 0 1-.088-.085.164.164 0 0 1-.014-.061c0-.021.004-.042.011-.062a.155.155 0 0 1 .085-.088.164.164 0 0 1 .061-.014ZM315.63 242.424c2.571-.351 5.666.192 7.522 2.103.068.074-.037.173-.117.142a36.009 36.009 0 0 0-7.399-1.924.157.157 0 0 1-.114-.045.158.158 0 0 1-.049-.112.162.162 0 0 1 .157-.164Z" fill="#263238"/><path d="M304.205 253.677c1.344.456 39.763.518 41.225-.407.561-.345.894-5.944 1.11-12.72v-.21l-24.781-.32v.425s-14.705 6.548-16.185 7.738c-1.48 1.19-2.707 5.019-1.369 5.494Z" fill="#37474F"/><path d="M346.546 240.334v.222c-.216 6.783-.549 12.369-1.11 12.714-.666.419-8.996.617-17.998.709-10.771.08-22.493-.055-23.226-.302-1.338-.45-.142-4.316 1.344-5.494 1.486-1.177 16.216-7.744 16.216-7.744v-.413l8.262.105 16.512.203Z" fill="#BF3855"/><path d="M304.643 252.185c6.48-.148 32.611-.13 39.023.216.056 0 .056.037 0 .037-6.412.29-32.549.061-39.023-.142-.136-.006-.136-.105 0-.111Z" fill="#263238"/><path opacity=".1" d="M330.022 240.131c-.721 4.131-1.813 10.223-2.59 13.848-10.771.08-22.493-.055-23.226-.302-1.338-.45-.142-4.316 1.344-5.494 1.486-1.177 16.216-7.744 16.216-7.744v-.413l8.256.105Z" fill="#000"/><path d="m348.735 240.871-27.79-.5s-.216-47.951.08-63.045c.339-17.228 2.744-68.891 2.744-68.891l20.767.573s4.131 12.098 3.699 19.54c-.123 2.152-1.566 5.278-2.201 7.565l-3.324 42.723 6.025 62.035Z" fill="#37474F"/><path d="M346.785 235.938a20.437 20.437 0 0 0-2.207-.234c-.82-.08-1.64-.167-2.466-.222a120.772 120.772 0 0 0-4.742-.234 290.55 290.55 0 0 0-9.569-.155c-1.819 0-3.632.031-5.445.087a.057.057 0 0 0-.039.016.055.055 0 0 0 0 .078c.01.011.025.017.039.017 3.157.203 6.32.339 9.483.487 3.163.148 6.32.302 9.483.327h2.72c.906 0 1.849.049 2.719-.062.061.018.086-.068.024-.105ZM323.812 209.425c-.117-7.492-.098-16.765-.098-24.256 0-14.975.306-29.95.918-44.925.333-8.398.796-16.789 1.277-25.175 0-.099-.142-.099-.148 0-1.233 15.008-1.93 30.059-2.362 45.116-.431 15.057-.585 31.741-.259 46.718.185 8.404.407 17.708.962 26.1a.064.064 0 0 0 .023.031.064.064 0 0 0 .072 0 .068.068 0 0 0 .022-.031c-.148-7.547-.289-15.988-.407-23.578Z" fill="#263238"/><path d="m316.815 215.289-.907 25.132c-.148 4.803-.364 9.008-.678 11.178a3.256 3.256 0 0 1-.401 1.505c.003.01.003.02 0 .03-1.461.925-39.88.864-41.218.407-1.338-.456-.155-4.316 1.338-5.493 1.492-1.178 16.222-7.738 16.222-7.738l1.141-25.095 24.503.074Z" fill="#F7A9A0"/><path d="m316.093 235.266-.185 5.154c-.148 4.804-.364 9.009-.678 11.179a.077.077 0 0 1 0 .037 6.132 6.132 0 0 1-.401 1.468c.003.01.003.02 0 .03-1.461.925-39.88.864-41.218.407-1.338-.456-.155-4.316 1.338-5.493 1.492-1.178 16.222-7.739 16.222-7.739l.117-5.234 24.805.191Z" fill="#fff"/><path d="M288.784 240.254c2.571-.351 5.66.191 7.523 2.096.067.074-.037.179-.118.148a36.07 36.07 0 0 0-7.46-1.934.155.155 0 0 1-.053-.034.182.182 0 0 1-.036-.051.163.163 0 0 1 .083-.212.18.18 0 0 1 .061-.013ZM286.89 241.278c2.571-.352 5.666.191 7.522 2.096.068.074-.037.179-.117.148a36.025 36.025 0 0 0-7.399-1.924.148.148 0 0 1-.062-.011.161.161 0 0 1-.052-.034.16.16 0 0 1-.039-.174.18.18 0 0 1 .034-.052.157.157 0 0 1 .113-.049ZM285.004 242.295c2.565-.351 5.66.191 7.516 2.097.074.074-.037.178-.117.148a36.009 36.009 0 0 0-7.399-1.924.16.16 0 0 1 0-.321Z" fill="#263238"/><path d="M273.58 253.542c1.338.456 39.757.517 41.218-.407.561-.34.9-5.938 1.11-12.714v-.21l-24.787-.321v.42s-14.711 6.554-16.216 7.744c-1.504 1.19-2.67 5.044-1.325 5.488Z" fill="#BF3855"/><path d="M274.017 252.056c6.474-.148 32.605-.136 39.024.209.049 0 .049.037 0 .043-6.419.284-32.55.062-39.03-.148-.136-.006-.136-.104.006-.104Z" fill="#263238"/><path d="M331.728 135.281s-12.387 35.608-12.775 42.205c-.333 5.623-1.233 63.397-1.233 63.397l-27.13-.616s4.316-59.68 4.933-65.531c.968-9.249 5.95-30.169 12.547-52.804 1.233-4.236 5.241-13.762 5.241-13.762l30.564.844s-.66 14.04-7.331 24.047c-.006-.031-2.935 1.227-4.816 2.22Z" fill="#37474F"/><path d="M316.364 235.679c-3.04-.166-6.166-.333-9.249-.351-3.083-.019-6.055-.056-9.07 0-1.714.043-3.422.049-5.136.154-.007-.003-.014-.004-.021-.003a.04.04 0 0 0-.019.007.036.036 0 0 0-.014.016.035.035 0 0 0-.005.02c0 .007.001.014.005.02a.043.043 0 0 0 .033.023c.007.001.014 0 .021-.003 3.04.247 6.092.296 9.144.358 3.052.061 6.042.111 9.07.074 1.708 0 3.416-.056 5.13-.118.191.013.296-.191.111-.197ZM313.096 125.095c-1.122 3.403-2.09 6.862-3.083 10.297-.993 3.434-2.047 6.93-3.083 10.401-1.967 6.709-4.976 17.962-6.499 24.787-1.523 6.826-5.894 60.993-5.888 61.887 0 .018.007.035.02.048a.07.07 0 0 0 .096 0 .072.072 0 0 0 .02-.048c.838-6.29 5.549-58.946 6.221-61.4 1.85-6.733 3.823-16.136 5.771-22.85 1.11-3.829 2.232-7.652 3.336-11.487 1.104-3.835 2.3-7.695 3.292-11.586a.106.106 0 0 0-.014-.076.105.105 0 0 0-.064-.045.105.105 0 0 0-.125.072ZM324.496 133.166c1.411.269 2.842.422 4.279.456 1.455 0 2.855-.191 4.316-.32a31.742 31.742 0 0 1 4.125.135 14.193 14.193 0 0 0 4.143-.388.05.05 0 0 1 .035.014c.009.01.015.022.015.035a.05.05 0 0 1-.015.035.05.05 0 0 1-.035.014 24.561 24.561 0 0 1-4.075.882c-1.425.154-2.837-.061-4.267 0a34.677 34.677 0 0 1-4.384.13 15.435 15.435 0 0 1-4.18-.901c-.044-.018-.007-.098.043-.092Z" fill="#263238"/><path d="M322.024 164.174c.32-1.091.616-2.195.962-3.286a227.576 227.576 0 0 1 2.133-6.604c1.498-4.347 2.916-8.719 4.495-13.041.888-2.466 1.702-4.932 2.731-7.331a.048.048 0 0 1 .026-.03.048.048 0 0 1 .039-.004.05.05 0 0 1 .03.025.051.051 0 0 1 .004.04c-.549 2.244-1.295 4.439-1.973 6.653-.678 2.213-1.4 4.408-2.121 6.61-1.437 4.365-2.843 8.743-4.403 13.071a55.342 55.342 0 0 1-1.35 3.626c-.475 1.233-.863 2.497-1.43 3.699a.06.06 0 0 1-.029.032.055.055 0 0 1-.042.002.055.055 0 0 1-.032-.028.058.058 0 0 1-.002-.043c.234-1.153.629-2.263.962-3.391ZM331.008 127.333c.197-1.887.833-7.855.937-8.947.05-.548.278-3.699.062-3.748a27.326 27.326 0 0 0-3.422-.062c-1.116 0-2.232-.062-3.342-.117a103.545 103.545 0 0 1-6.752-.617.239.239 0 0 0-.174.047.237.237 0 0 0-.085.249c.008.03.022.058.041.082a.227.227 0 0 0 .07.061.22.22 0 0 0 .087.03c2.261.333 4.534.579 6.819.74 1.11.08 5.42.302 6.419.191 0 .45-.302 2.108-.345 2.466a13.58 13.58 0 0 0-1.425.093c-.53.037-1.06.061-1.591.074-1.097 0-2.201 0-3.298-.037a50.987 50.987 0 0 1-6.345-.679.053.053 0 0 0-.045.006.055.055 0 0 0-.016.018.06.06 0 0 0-.005.023.046.046 0 0 0 .021.04.043.043 0 0 0 .022.009c.008.001.016 0 .023-.003 2.128.488 4.294.787 6.474.894 1.024.049 2.051.049 3.083 0 .555 0 1.11-.049 1.665-.086.479-.019.957-.068 1.43-.148v.215c-.135 1.042-.826 7.177-1.06 9.2-1.135.518-6.672 3.083-7.319 2.707-1.233-.666-5.469-3.503-6.708-4.199.172-1.819.407-3.626.715-5.426.16-.925.333-1.85.53-2.763.249-.927.422-1.874.518-2.83 0-.08-.117-.148-.173-.068l-.086.111a.059.059 0 0 0 0 .062c-.35.805-.616 1.644-.795 2.503-.241.938-.45 1.85-.617 2.824a64.493 64.493 0 0 0-.888 5.716.363.363 0 0 0 .161.333c1.849 1.091 6.967 4.378 7.436 4.464.9.167 7.651-2.762 7.83-2.879.179-.117.123-.315.148-.549ZM338.869 125.884c-.154-1.622-.617-6.782-.715-7.695-.043-.475-.235-3.194-.111-3.206.653-.003 1.305.053 1.948.166.617.05 1.277.087 1.912.105 1.279.034 2.56-.009 3.835-.129.191 0 .234.388.043.406a35.281 35.281 0 0 1-3.872.21 27.358 27.358 0 0 1-3.663-.24c0 .388.216 1.849.247 2.145.277.035.551.091.82.167a17.704 17.704 0 0 0 2.787.339c1.205.05 2.413-.012 3.607-.185.037 0 .043.068 0 .08a13.872 13.872 0 0 1-3.7.358 15.355 15.355 0 0 1-1.751-.173 19.28 19.28 0 0 1-.949-.185 3.797 3.797 0 0 1-.82-.216v.191c.098.901.616 6.166.789 7.917.654.518 3.866 3.034 4.23 2.775.69-.499 3.052-2.651 3.742-3.169a90.833 90.833 0 0 0-.518-4.674c-.111-.801-.228-1.597-.357-2.398a23.587 23.587 0 0 1-.352-2.467c0-.068.062-.117.099-.043l.049.099a.075.075 0 0 1 0 .055c.22.715.389 1.444.506 2.183.154.814.296 1.634.425 2.466.255 1.645.461 3.289.617 4.933a.348.348 0 0 1-.08.277c-.999.827-3.835 3.293-4.113 3.355-.512.08-4.421-2.837-4.525-2.954a.759.759 0 0 1-.13-.493ZM335.952 122.166c-.043-2.812-.111-5.629-.29-8.441a144.017 144.017 0 0 0-.382-4.852c0-.056-.092-.062-.092 0 .135 2.836.265 5.672.369 8.508.105 2.837.105 5.63.136 8.448 0 1.621 0 3.237.037 4.858a.047.047 0 0 0 .006.046c.004.006.01.012.017.015a.046.046 0 0 0 .046 0 .052.052 0 0 0 .018-.015.058.058 0 0 0 .008-.022.065.065 0 0 0-.002-.024c.154-2.836.178-5.678.129-8.521Z" fill="#263238"/><path d="m276.323 108.163-19.811 1.573a34.75 34.75 0 0 1-.82-4.933c-.395-4.988-1.585-19.959-1.585-19.959l24.923-1.973 1.603 20.218c.16 2.028-4.31 5.074-4.31 5.074Z" fill="#BF3855"/><path opacity=".2" d="M280.627 103.089c.16 1.967-4.033 4.883-4.316 5.062.684-.549.252-4.439.252-4.439s3.971-.839 4.064-.623Z" fill="#000"/><path d="M258.246 90.424c2.91-.475 5.833-.758 8.768-1.005 2.935-.246 5.864-.4 8.811-.388-2.91.474-5.833.764-8.762 1.005-2.929.24-5.882.419-8.817.388ZM258.504 93.735c2.287-.425 4.587-.66 6.893-.857a68.492 68.492 0 0 1 6.943-.24 68.57 68.57 0 0 1-6.893.87c-2.306.16-4.619.283-6.943.227ZM258.764 97.022c4.57-.776 9.2-1.144 13.836-1.098-2.288.426-4.588.66-6.894.857-2.306.198-4.618.296-6.942.24Z" fill="#fff"/><path d="M329.238 76.403c0 .617-1.69 5.062-4.316 5.654-.863.191-2.115-4.464-2.115-4.464l-.173-.327-2.386-4.52 4.661-5.166.685-.703s.573 1.282 1.27 2.88a2.6 2.6 0 0 1 .099.227c.044.085.083.17.117.26.111.234.216.48.32.727.105.247.155.364.235.561l.234.586a32.997 32.997 0 0 1 1.369 4.285Z" fill="#F7A9A0"/><path d="M326.846 69.756a10.234 10.234 0 0 1-4.229 7.51l-2.387-4.52 4.662-5.166.684-.703s.574 1.282 1.27 2.88Z" fill="#263238"/><path d="M310.981 65.804c-.13 9.25 5.413 10.359 7.399 10.377 1.85 0 8.015-.154 9.082-9.347 1.067-9.193-3.188-12.165-7.337-12.424-4.15-.26-9.002 2.14-9.144 11.394Z" fill="#F7A9A0"/><path d="M311.881 64.922c.209-.043.414-.099.617-.166.231-.027.448-.129.616-.29a.33.33 0 0 0 0-.4.817.817 0 0 0-.82-.149c-.291.064-.55.23-.728.469a.36.36 0 0 0-.004.363.35.35 0 0 0 .319.174ZM318.06 64.33a5.46 5.46 0 0 1-.617-.092 1.016 1.016 0 0 1-.616-.222.33.33 0 0 1 0-.4.815.815 0 0 1 .795-.235c.296.028.572.161.777.376a.348.348 0 0 1 .037.409.353.353 0 0 1-.376.165ZM316.796 66.193s.05 0 .05.049c0 .617.111 1.356.684 1.541v.037c-.703-.074-.857-1.035-.734-1.627Z" fill="#263238"/><path d="M317.338 65.514c1.011-.117 1.159 1.912.222 2.017-.938.104-1.073-1.924-.222-2.017Z" fill="#263238"/><path d="M317.745 65.588c.185.105.37.29.617.296.247.007.425-.222.573-.438h.037c.031.389-.092.796-.505.888-.413.093-.672-.246-.802-.616-.049-.056.006-.167.08-.13ZM313.276 66.15s-.05.036-.044.061c.068.617.044 1.357-.511 1.61v.036c.696-.154.721-1.122.555-1.708Z" fill="#263238"/><path d="M312.659 65.545c-1.017 0-.937 2.035 0 2.029.937-.006.857-2.035 0-2.029Z" fill="#263238"/><path d="M312.239 65.693c-.154.117-.308.32-.499.34-.191.018-.395-.186-.549-.395h-.031c0 .388.154.789.53.844.377.056.58-.29.66-.678.006-.043-.049-.154-.111-.111ZM317.197 71.495c-.13.167-.259.382-.481.432a1.654 1.654 0 0 1-.691-.08s-.043 0 0 .037a.837.837 0 0 0 .832.246.68.68 0 0 0 .432-.616c0-.037-.068-.043-.092-.019ZM314.428 69.387s-.074.95-.049 1.393c0 .037.111.055.265.05a2.113 2.113 0 0 0 1.998-.913c0-.043-.031-.087-.068-.056a3.233 3.233 0 0 1-1.893.672c-.037-.123.179-1.621.111-1.621-.344.052-.68.15-.999.29.099-1.974.506-3.922.573-5.895a.063.063 0 0 0-.022-.03.06.06 0 0 0-.072 0 .06.06 0 0 0-.023.03 32.09 32.09 0 0 0-.888 6.32c0 .24.894-.166 1.067-.24Z" fill="#263238"/><path d="M314.674 70.694c.269.347.624.62 1.03.789.221.088.465.103.696.043.506-.136.518-.617.426-.993a2.606 2.606 0 0 0-.228-.616 3.3 3.3 0 0 1-1.924.777Z" fill="#263238"/><path d="M315.705 71.452c.222.088.466.104.697.043.505-.136.518-.616.425-.993a1.186 1.186 0 0 0-1.122.95Z" fill="#FF9ABB"/><path d="M327.511 67.34a3.817 3.817 0 0 1-2.546-2.793 10.052 10.052 0 0 1-4.483-2.69c.093.186.722 1.493 1.067 2.147-5.999-.284-8.416-4.495-8.416-4.495a10.216 10.216 0 0 0-2.047 4.044s-.525-3.57.992-6.22a5.861 5.861 0 0 1 5.013-3.114 8.355 8.355 0 0 1 8.41 1.368c4.36 3.601 2.01 11.752 2.01 11.752Z" fill="#263238"/><path d="M316.969 63.652c1.01.383 2.072.614 3.15.685a9.302 9.302 0 0 1-4.643-1.998 8.686 8.686 0 0 1-1.498-1.585 5.95 5.95 0 0 1-1.079-2.115.049.049 0 0 0-.074-.023.043.043 0 0 0-.018.023c.132.782.395 1.537.777 2.232a6.424 6.424 0 0 0 1.56 1.752 7.482 7.482 0 0 0 1.849 1.023" fill="#263238"/><path d="M325.995 67.53s1.807-3.033 3.169-2.416c1.363.616.148 4.932-1.344 5.598a1.565 1.565 0 0 1-2.158-.678l.333-2.504Z" fill="#F7A9A0"/><path d="M328.788 66.335s.031 0 0 .043a3.976 3.976 0 0 0-1.849 2.62.864.864 0 0 1 .562-.456.873.873 0 0 1 .714.123v.062a.971.971 0 0 0-1.036.413c-.18.281-.328.58-.444.894-.043.099-.222.062-.191-.056-.154-1.393.777-3.39 2.244-3.643Z" fill="#263238"/><path d="m313.306 108.231 1.35-8.355a11.242 11.242 0 0 1-2.3-6.406v-.08a3.08 3.08 0 0 1 0-.333c.074-4.76 7.091-13.047 8.367-14.7.469-.606.982-1.177 1.536-1.707.215-.198.431-.395.653-.568 2.966-2.423 6.283-2.583 9.341.13.222.191.438.407.654.617.068.061.129.13.191.197 1.751 1.893 3.305 4.63 4.655 7.726.087.185.167.37.241.555a65.548 65.548 0 0 1 1.566 4.044c.055.154.111.309.16.463a134 134 0 0 1 4.828 19.2l-31.242-.783Z" fill="#BF3855"/><path d="M320.285 80.442a.466.466 0 0 1-.734.373.465.465 0 0 1-.192-.485.47.47 0 0 1 .854-.151c.05.078.075.17.072.263Zm4.631-.364a.458.458 0 0 0-.469.45.467.467 0 0 0 .276.435.462.462 0 1 0 .193-.885Zm5.087.105a.462.462 0 1 0 .456.468.47.47 0 0 0-.456-.468Zm5.087.105a.46.46 0 0 0-.463.462.462.462 0 0 0 .463.463.459.459 0 0 0 .431-.275.46.46 0 0 0 .037-.176.454.454 0 0 0-.133-.337.463.463 0 0 0-.335-.137Zm-12.203-4.206c-.222.173-.437.37-.653.568.063.039.135.06.209.061a.462.462 0 0 0 .444-.629Zm4.662-.19a.462.462 0 1 0 .456.468.47.47 0 0 0-.456-.469Zm4.68.32a.485.485 0 0 0-.037.414.452.452 0 0 0 .247.257.464.464 0 0 0 .443-.042 5.286 5.286 0 0 0-.653-.598v-.031Zm-17.665 12.27a.46.46 0 0 0-.431.28.453.453 0 0 0-.03.267.456.456 0 0 0 .358.368.463.463 0 1 0 .103-.915Zm5.086.105a.463.463 0 1 0 .457.475.458.458 0 0 0-.125-.341.457.457 0 0 0-.332-.147v.013Zm5.087.105a.469.469 0 0 0-.475.456.472.472 0 0 0 .466.415.47.47 0 0 0 .465-.415.467.467 0 0 0-.456-.456Zm5.087.105a.466.466 0 0 0-.522.465.469.469 0 0 0 .522.466.45.45 0 0 0 .331-.13.472.472 0 0 0 .138-.327.476.476 0 0 0-.288-.439.47.47 0 0 0-.181-.036Zm5.087.11a.463.463 0 1 0 .419.292.44.44 0 0 0-.244-.254.454.454 0 0 0-.175-.037Zm4.624.463a.476.476 0 0 0 0 .092.443.443 0 0 0 .173.37c-.062-.154-.117-.308-.173-.462Zm-22.339-5.075a.464.464 0 0 0-.462.463.465.465 0 0 0 .462.462.46.46 0 0 0 .463-.462.462.462 0 0 0-.463-.463Zm5.087.105a.469.469 0 0 0-.443.635.446.446 0 0 0 .247.254.47.47 0 0 0 .652-.414.468.468 0 0 0-.456-.475Zm5.087.105a.467.467 0 0 0 0 .931.467.467 0 0 0 0-.93Zm5.087.111a.464.464 0 0 0-.468.543.46.46 0 0 0 .357.371.46.46 0 0 0 .561-.445.447.447 0 0 0-.031-.177.44.44 0 0 0-.244-.254.454.454 0 0 0-.175-.038Zm5.272.148a.45.45 0 0 0-.512.092.462.462 0 0 0 .327.79.443.443 0 0 0 .45-.327c-.091-.185-.179-.37-.265-.555Zm-23.344 12.332a.468.468 0 1 0-.025.935.468.468 0 0 0 .025-.935Zm5.087.11a.46.46 0 0 0-.431.28.452.452 0 0 0-.03.267.456.456 0 0 0 .358.368.465.465 0 0 0 .559-.446.47.47 0 0 0-.456-.468Zm5.086.105a.464.464 0 0 0-.327.79.464.464 0 0 0 .327.135.454.454 0 0 0 .469-.45.454.454 0 0 0-.133-.337.463.463 0 0 0-.336-.138Zm5.087.105a.465.465 0 0 0-.434.274.46.46 0 0 0 .32.64.46.46 0 0 0 .479-.184.458.458 0 0 0 .053-.439.454.454 0 0 0-.442-.291h.024Zm5.087.105a.467.467 0 0 0-.296.778c.076.085.182.14.296.153a.469.469 0 0 0 .442-.64.46.46 0 0 0-.442-.291Zm5.081.111a.46.46 0 0 0-.431.28.46.46 0 0 0 .328.635.464.464 0 0 0 .428-.775.458.458 0 0 0-.325-.14Zm-27.457-4.575a3.08 3.08 0 0 0 0 .333v.08a.412.412 0 0 0 .05-.19.462.462 0 0 0-.05-.223Zm4.686-.142a.464.464 0 0 0-.462.463.46.46 0 0 0 .789.327.462.462 0 0 0-.327-.79Zm5.087.105a.462.462 0 1 0 0 .925.458.458 0 0 0 .469-.45.467.467 0 0 0-.142-.347.463.463 0 0 0-.352-.128h.025Zm5.087.105a.462.462 0 1 0 .159.033.462.462 0 0 0-.184-.033h.025Zm5.087.105a.465.465 0 0 0-.415.465.467.467 0 0 0 .415.466.47.47 0 0 0 .331-.805.458.458 0 0 0-.356-.126h.025Zm5.08.105a.47.47 0 0 0-.468.456.46.46 0 0 0 .789.327.462.462 0 0 0 .136-.327.478.478 0 0 0-.146-.328.479.479 0 0 0-.335-.128h.024Zm-23.177 12.381a.469.469 0 0 0-.475.456.469.469 0 0 0 .931 0 .467.467 0 0 0-.456-.456Zm5.087.104a.465.465 0 0 0-.481.546.475.475 0 0 0 .36.38.472.472 0 0 0 .487-.19.463.463 0 0 0 .084-.261.465.465 0 0 0-.45-.456v-.019Zm5.087.111a.469.469 0 0 0-.436.276.462.462 0 1 0 .886.193.465.465 0 0 0-.127-.328.449.449 0 0 0-.323-.141Zm5.086.105a.465.465 0 0 0-.467.543.46.46 0 0 0 .625.35.464.464 0 0 0-.158-.893Zm5.081.105a.467.467 0 0 0-.43.278.46.46 0 0 0 .091.505.46.46 0 0 0 .795-.308.451.451 0 0 0-.126-.331.467.467 0 0 0-.324-.144h-.006Zm5.087.105a.458.458 0 0 0-.43.278.458.458 0 0 0 .09.505.468.468 0 0 0 .712-.054.464.464 0 0 0-.372-.729Zm-22.814-4.717a.461.461 0 0 0-.365.116.462.462 0 0 0-.157.349.466.466 0 0 0 .522.466.47.47 0 0 0 .344-.791.447.447 0 0 0-.325-.146l-.019.006Zm5.087.105a.469.469 0 0 0-.475.456.467.467 0 0 0 .279.43.457.457 0 0 0 .504-.091.46.46 0 0 0-.308-.795Zm5.081.111a.462.462 0 1 0 .018 0h-.018Zm5.087.105a.465.465 0 0 0-.462.544.465.465 0 0 0 .622.349.46.46 0 0 0-.148-.893h-.012Zm5.086.104a.462.462 0 0 0-.339.783.46.46 0 0 0 .711-.054.463.463 0 0 0-.353-.729h-.019Zm5.087.105a.471.471 0 0 0-.474.55.476.476 0 0 0 .362.377.476.476 0 0 0 .486-.192.474.474 0 0 0-.042-.585.468.468 0 0 0-.313-.15h-.019Z" fill="#fff"/><path d="M326.175 82.877c-2.263 5.426-12.949 23.467-18.498 24.127-8.725 1.03-18.417-2.836-23.856-3.983-1.732-.364 2.109-15.507 5.346-14.428 4.181 1.393 12.541 2.941 14.854 2.818 1.584-.08 10.482-7.973 16.74-13.417 5.192-4.544 8.274-1.992 5.414 4.883Z" fill="#F7A9A0"/><path d="m295.239 91.707-2.466-1.726a9.982 9.982 0 0 1-2.047-2.054c-2.411-2.892-10.124-8.385-20.15-5.043-3.841 1.276-4.624 4.531-.395 3.909 2.978-.438 5.007-.993 6.018-.864 0 0-3.151 3.36-2.62 5.975a49.178 49.178 0 0 0 1.88 6.74c.434-.054.865-.134 1.289-.241a5.619 5.619 0 0 0 4.501 3.946l4.464.962 9.526-11.604Z" fill="#F7A9A0"/><path d="M287.99 85.535c-1.942-.308-6.079-.9-9.631-.204-3.946.771-11.339 3.324-10.741 6.228.444 2.133 3.348 1.406 3.348 1.406s-2.83 1.695-2.016 3.533c.746 1.677 2.966.98 2.966.98s-1.542 1.326-.512 2.799c1.233 1.776 4.261-1.294 7.072-.58.629.161 9.514-14.162 9.514-14.162Z" fill="#F7A9A0"/><path d="M279.868 89.364a16.03 16.03 0 0 0-8.879 3.52c-.062.056-.049.13 0 .093a39.494 39.494 0 0 1 8.873-3.576l.006-.037ZM280.529 93.365c-1.615.173-5.962 1.517-8.632 4.045-.061.062-.049.136 0 .093a42.541 42.541 0 0 1 8.632-4.1s.025-.038 0-.038Z" fill="#263238"/><path d="m307.713 88.778 8.632 12.825s7.177-11.191 10.371-18.497c3.194-7.307 0-9.927-6.221-5.655-6.222 4.273-12.782 11.327-12.782 11.327Z" fill="#BF3855"/><path d="M320.285 80.442a.467.467 0 1 1-.934-.024.467.467 0 0 1 .934.024Zm4.631-.364a.452.452 0 0 0-.431.275.461.461 0 0 0 .034.435.464.464 0 0 0 .471.208.468.468 0 0 0 .371-.357.456.456 0 0 0-.022-.268.461.461 0 0 0-.423-.293Zm-2.047-4.032c-.266.123-.537.265-.821.419a.467.467 0 0 0 .516.23.464.464 0 0 0 .354-.44.403.403 0 0 0-.049-.21Zm4.383-.044a.447.447 0 0 0-.172.34.458.458 0 0 0 .278.436.462.462 0 0 0 .388-.011 2.298 2.298 0 0 0-.494-.765Zm-17.769 12.375a.463.463 0 1 0 .419.292.455.455 0 0 0-.419-.292Zm5.08.105a.464.464 0 0 0-.461.547.464.464 0 0 0 .836.178.459.459 0 0 0-.05-.585.465.465 0 0 0-.325-.14Zm5.087.105a.46.46 0 0 0-.461.544.46.46 0 0 0 .833.184.463.463 0 0 0 .084-.253.456.456 0 0 0-.275-.448.464.464 0 0 0-.181-.04v.013Zm-7.399-4.36-.617.58a.464.464 0 0 0 .901-.148.459.459 0 0 0-.253-.4l-.031-.031Zm4.933.069a.46.46 0 0 0-.463.462.462.462 0 1 0 .463-.462Zm5.086.104a.469.469 0 0 0-.443.635.446.446 0 0 0 .247.254.47.47 0 0 0 .653-.414.467.467 0 0 0-.444-.475h-.013Zm-7.898 12.696a.47.47 0 1 0 .012 0h-.012Zm-2.466-4.316a.468.468 0 1 0 .456.474.466.466 0 0 0-.432-.45l-.024-.024Zm5.087.11a.46.46 0 0 0-.463.463.462.462 0 1 0 .463-.462Z" fill="#fff"/><path d="M310.673 87.341c.289.444.647.845.961 1.234.315.388.617.85.925 1.282.592.822 1.186 1.644 1.782 2.466 1.233 1.678 2.467 3.324 3.576 5.075 0 .03 0 .068-.043.043a49.573 49.573 0 0 1-3.81-4.846c-.604-.847-1.196-1.7-1.776-2.56-.29-.437-.586-.88-.857-1.33-.271-.451-.518-.944-.814-1.376-.025.012.037.012.056.012Z" fill="#263238"/><path d="M325.667 85.35a87.492 87.492 0 0 1-2.09 4.193c-.727 1.38-1.486 2.75-2.232 4.125-.746 1.374-1.566 2.706-2.367 4.05a49.955 49.955 0 0 1-2.572 3.922l-.061.086-.056-.086c-.265-.432-.53-.863-.789-1.301.308.407.617.814.906 1.233h-.117a91.835 91.835 0 0 0 2.356-4.045l2.318-4.063c.783-1.35 1.529-2.719 2.331-4.063.801-1.344 1.572-2.713 2.373-4.051Z" fill="#263238"/><path d="M325.574 86.638c-.125.354-.32.68-.573.956-.124.14-.256.271-.395.395-.142.119-.292.228-.45.326.503-.532.976-1.092 1.418-1.677Z" fill="#263238"/><path d="M23.795 258.369c-.26 1.437 3.847 2.288 5.672 1.529a39.133 39.133 0 0 0 4.317-2.861c4.538-3.243 10.851-8.015 10.851-8.015l21.458 1.295 11.961-22.068s-19.73-1.141-21.087-1.85l-.246-.135c-6.166-3.139-11.296-5.55-11.882-5.241-1.566.881-20.804 35.879-21.044 37.346Z" fill="#D3766A"/><path d="m60.739 226.979-11.283 22.327-4.822-.29s-6.314 4.778-10.858 8.015a39.71 39.71 0 0 1-4.316 2.861c-1.85.765-5.932-.092-5.673-1.529.26-1.436 19.503-36.465 21.075-37.334.617-.327 5.716 2.103 11.882 5.247.086.037.166.086.246.123 1.228.313 2.484.507 3.749.58Z" fill="#EBEBEB"/><path d="M23.363 258.653c.265-1.474 19.897-37.1 21.506-37.982.617-.345 5.963 2.214 12.332 5.494l.197.105-12.412 23.122-.382-.222s-13.614 10.272-15.488 11.055c-1.875.783-6.03-.098-5.753-1.572Z" fill="#BF3855"/><path opacity=".1" d="M23.363 258.653c.265-1.474 19.897-37.1 21.506-37.982.617-.345 5.963 2.214 12.332 5.494l.197.105-12.412 23.122-.382-.222s-13.614 10.272-15.488 11.055c-1.875.783-6.03-.098-5.753-1.572Z" fill="#000"/><path d="M24.966 259.011c3.453-5.92 16.839-30.145 19.805-36.262 0-.049 0-.068-.037 0-3.552 5.796-16.74 30.127-19.867 36.231-.068.111.025.16.099.031ZM43.525 251.914c1.745-2.121 2.972-5.211 2.288-7.942 0-.105-.18-.068-.198 0a37.503 37.503 0 0 1-2.386 7.744.179.179 0 0 0 .05.247c.039.026.087.036.133.026a.177.177 0 0 0 .113-.075ZM41.564 253.054c1.745-2.121 2.972-5.21 2.282-7.941 0-.105-.173-.068-.192 0a38.004 38.004 0 0 1-2.386 7.744.179.179 0 0 0 .05.247c.039.026.087.035.133.026a.174.174 0 0 0 .113-.076ZM39.597 254.195c1.74-2.121 2.972-5.21 2.282-7.948 0-.105-.173-.061-.191 0a38.446 38.446 0 0 1-2.387 7.751.177.177 0 0 0 .05.246.175.175 0 0 0 .246-.049Z" fill="#263238"/><path d="M46.99 257.827c1.794-.222 2.17-2.269 1.887-3.7a14.393 14.393 0 0 0-3.41-6.622.073.073 0 0 0-.026-.021.074.074 0 0 0-.033-.008.074.074 0 0 0-.032.008.073.073 0 0 0-.026.021.338.338 0 0 0-.5.21c-.351 2.349-1.017 4.821-.616 7.208.197 1.362 1.066 3.119 2.756 2.904Zm-1.942-6.444c.141-1.159.345-2.306.45-3.471.66 1.295 1.375 2.553 1.905 3.909.266.65.486 1.318.66 1.998.252 1.054.08 4.593-2.282 2.744-1.307-1.018-.906-3.798-.733-5.18Z" fill="#263238"/><path d="M49.395 241.826c-1.906 1.492-3.083 3.755-4.44 5.716a.333.333 0 0 0 .228.487c0 .049 0 .093.074.086a14.316 14.316 0 0 0 7.01-2.528c1.19-.863 2.307-2.614 1.148-4.001-1.16-1.387-2.91-.629-4.02.24Zm2.275-.135c2.984.259.703 2.959-.198 3.564-.594.376-1.212.714-1.85 1.011-1.313.616-2.694 1.066-4.056 1.566.715-.925 1.35-1.899 2.034-2.849.814-1.128 2.417-3.44 4.07-3.292Z" fill="#263238"/><path d="M98.346 194.103c.424 3.971.648 7.961.672 11.955 0 0 31.446 14.539 32.679 28.363.451 4.89-.203 14.058-9.797 18.239-10.722 4.667-69.976 1.455-69.976 1.455l7.399-27.284H85.46s-18.442 2.935-20.446-9.354c-1.85-11.425 5.154-23.381 5.154-23.381l28.178.007Z" fill="#37474F"/><path d="M58.065 252.771c.654-3.139 1.289-6.302 2.016-9.428a310.072 310.072 0 0 1 2.33-9.36c.235-.881.476-1.751.71-2.626.117-.419.228-.839.351-1.233.107-.418.235-.829.383-1.233 0-.044.067 0 .061 0a20.048 20.048 0 0 1-.468 2.41c-.167.759-.32 1.523-.487 2.282-.346 1.56-.691 3.113-1.049 4.667-.715 3.12-1.51 6.209-2.318 9.305-.462 1.757-.925 3.508-1.394 5.265a.073.073 0 0 1-.065.048.067.067 0 0 1-.027-.005.073.073 0 0 1-.024-.014.075.075 0 0 1-.023-.05c0-.01 0-.019.004-.028ZM76.457 226.837c2.121-.154 4.242-.222 6.363-.265 2.121-.043 4.242 0 6.37 0 2.127 0 4.242.148 6.356.339 2.121.159 4.23.464 6.308.913l-1.578-.204-1.585-.154c-1.054-.086-2.109-.179-3.163-.222a156.701 156.701 0 0 0-6.35-.246c-2.116-.037-4.237-.087-6.358-.118l-6.363-.043Z" fill="#263238"/><path d="M75.995 196.341a74.738 74.738 0 0 0-2.467 7.399 47.647 47.647 0 0 0-1.51 7.646 21.394 21.394 0 0 0-.08 3.872 9.633 9.633 0 0 0 .937 3.699c.286.558.67 1.059 1.134 1.48.48.416 1 .782 1.554 1.092a17.261 17.261 0 0 0 3.564 1.43 47.573 47.573 0 0 0 7.645 1.387c2.59.302 5.186.512 7.788.777 2.617.23 5.215.642 7.775 1.233 1.297.297 2.551.759 3.73 1.375a17.672 17.672 0 0 1 3.25 2.306l.586.518h-.79l-21.13-.29-10.544-.104c-3.52 0-7.047 0-10.568.074 3.52-.204 7.041-.259 10.568-.321a664.87 664.87 0 0 1 10.569-.08h10.568l10.568.099-.203.511a17.038 17.038 0 0 0-3.133-2.201 14.603 14.603 0 0 0-3.6-1.307 61.432 61.432 0 0 0-7.69-1.184c-2.589-.277-5.19-.499-7.787-.814a48.696 48.696 0 0 1-7.732-1.443 16.974 16.974 0 0 1-3.668-1.516 10.118 10.118 0 0 1-1.628-1.178 5.734 5.734 0 0 1-1.233-1.634 10.06 10.06 0 0 1-.938-3.86 22.105 22.105 0 0 1 .136-3.94 45.518 45.518 0 0 1 1.671-7.664 69.065 69.065 0 0 1 2.658-7.362Z" fill="#263238"/><path d="M25.274 258.369c-.265 1.437 3.841 2.288 5.672 1.529a39.45 39.45 0 0 0 4.317-2.86c4.544-3.244 10.858-8.016 10.858-8.016l21.45 1.295 11.975-22.062s-19.731-1.14-21.088-1.849l-.252-.136c-6.166-3.138-11.29-5.549-11.876-5.241-1.572.876-20.79 35.873-21.056 37.34Z" fill="#D3766A"/><path d="m62.243 226.979-11.29 22.327-4.82-.29s-6.315 4.778-10.853 8.015a40.365 40.365 0 0 1-4.316 2.861c-1.85.765-5.938-.092-5.672-1.529.265-1.436 19.496-36.465 21.074-37.334.58-.327 5.716 2.103 11.876 5.247l.253.123c1.228.313 2.483.507 3.748.58Z" fill="#EBEBEB"/><path d="M24.862 258.653c.265-1.474 19.897-37.1 21.507-37.982.616-.345 5.968 2.214 12.331 5.494l.198.105-12.406 23.122-.388-.222s-13.615 10.272-15.483 11.055c-1.868.783-6.03-.098-5.759-1.572Z" fill="#BF3855"/><path d="M26.464 259.011c3.46-5.92 16.839-30.145 19.81-36.262 0-.049 0-.068-.036 0-3.558 5.796-16.747 30.127-19.873 36.231-.067.111.025.16.1.031ZM45.03 251.914c1.745-2.121 2.978-5.211 2.288-7.942 0-.105-.179-.068-.197 0a37.88 37.88 0 0 1-2.362 7.769.172.172 0 0 0 .077.179.175.175 0 0 0 .195-.006ZM43.064 253.054c1.745-2.121 2.978-5.21 2.288-7.941 0-.105-.179-.068-.197 0a37.98 37.98 0 0 1-2.38 7.744.176.176 0 0 0 .177.271.175.175 0 0 0 .112-.074ZM41.096 254.195c1.745-2.121 2.972-5.21 2.287-7.948 0-.105-.179-.061-.197 0a38.062 38.062 0 0 1-2.38 7.751.173.173 0 0 0 .046.243.18.18 0 0 0 .131.028.179.179 0 0 0 .113-.074Z" fill="#263238"/><path d="M48.494 257.827c1.788-.222 2.164-2.269 1.88-3.7a14.393 14.393 0 0 0-3.409-6.622.065.065 0 0 0-.024-.021.068.068 0 0 0-.031-.008.068.068 0 0 0-.032.008.065.065 0 0 0-.024.021.34.34 0 0 0-.5.21c-.35 2.349-1.023 4.821-.616 7.208.191 1.362 1.06 3.119 2.756 2.904Zm-1.948-6.444c.148-1.159.345-2.306.45-3.471.66 1.295 1.375 2.553 1.905 3.909.265.651.488 1.318.666 1.998.247 1.054.074 4.593-2.287 2.744-1.29-1.018-.907-3.798-.734-5.18Z" fill="#263238"/><path d="M50.926 241.826c-1.9 1.492-3.083 3.755-4.434 5.716a.326.326 0 0 0 .222.487c0 .049 0 .093.08.086a14.315 14.315 0 0 0 7.005-2.528c1.19-.863 2.312-2.614 1.153-4.001-1.16-1.387-2.941-.629-4.026.24Zm2.275-.135c2.99.259.709 2.959-.197 3.564-.594.376-1.212.714-1.85 1.011-1.32.616-2.695 1.066-4.064 1.566.722-.925 1.35-1.899 2.035-2.849.79-1.128 2.417-3.44 4.045-3.292h.03Z" fill="#263238"/><path d="M102.31 194.103s.616 7.874.567 13.053c0 0 29.078 13.442 30.342 27.259.45 4.89-.204 14.058-9.798 18.239-10.722 4.667-69.976 1.455-69.976 1.455l7.4-27.284h26.13s-18.442 2.935-20.446-9.354c-1.85-11.425 5.155-23.38 5.155-23.38l30.626.012Z" fill="#37474F"/><path d="M59.557 252.771c.653-3.139 1.282-6.302 2.01-9.428a309.88 309.88 0 0 1 3.046-11.986c.11-.419.228-.839.345-1.233.117-.395.222-.851.382-1.233 0-.044.068 0 .068 0a21.36 21.36 0 0 1-.469 2.41c-.166.759-.326 1.523-.493 2.282a283.008 283.008 0 0 1-1.048 4.667c-.715 3.12-1.51 6.209-2.318 9.305l-1.388 5.265c-.018.08-.135.056-.135-.049ZM77.963 226.837c2.115-.154 4.236-.222 6.357-.265 2.12-.043 4.248 0 6.37 0 2.12 0 4.247.148 6.362.339 2.113.166 4.213.477 6.283.931l-1.578-.203-1.579-.154c-1.054-.087-2.108-.179-3.169-.222-2.115-.124-4.23-.21-6.35-.247-2.122-.037-4.237-.086-6.352-.117l-6.344-.062Z" fill="#263238"/><path d="M77.5 196.341a76.408 76.408 0 0 0-2.467 7.399 48.335 48.335 0 0 0-1.51 7.646 21.975 21.975 0 0 0-.08 3.872 9.638 9.638 0 0 0 .943 3.699 5.201 5.201 0 0 0 1.128 1.48 9.77 9.77 0 0 0 1.554 1.092 17.394 17.394 0 0 0 3.564 1.43 47.644 47.644 0 0 0 7.651 1.387c2.584.302 5.186.512 7.788.777a56.81 56.81 0 0 1 7.769 1.233 15.51 15.51 0 0 1 3.736 1.375 17.885 17.885 0 0 1 3.25 2.306l.586.518h-.796l-21.13-.29-10.569-.08c-3.52 0-7.04 0-10.561.074 3.514-.203 7.04-.259 10.562-.32 3.52-.062 7.047-.074 10.568-.08h10.574l10.568.098-.209.512a17.065 17.065 0 0 0-3.132-2.201 14.582 14.582 0 0 0-3.595-1.307 61.433 61.433 0 0 0-7.689-1.184c-2.59-.278-5.192-.5-7.793-.814a48.926 48.926 0 0 1-7.732-1.443 17.07 17.07 0 0 1-3.7-1.517 10.053 10.053 0 0 1-1.622-1.177 5.635 5.635 0 0 1-1.233-1.634 9.952 9.952 0 0 1-.937-3.86 22.105 22.105 0 0 1 .136-3.94 44.914 44.914 0 0 1 1.67-7.664 69.014 69.014 0 0 1 2.707-7.387Z" fill="#263238"/><path d="M77.844 205.485c1.473 0 6.055.259 8.244-1.585 1.77-1.498 2.546-6.597 2.854-8.015 0-.074.118-.049.118 0a16.033 16.033 0 0 1-.617 4.68c-.358 1.295-.839 2.737-1.85 3.644a7.4 7.4 0 0 1-3.995 1.461 18.32 18.32 0 0 1-4.754-.068.074.074 0 0 1-.019-.026.083.083 0 0 1 0-.064.089.089 0 0 1 .019-.027ZM102.879 207.156c9.908 4.513 19.65 10.328 26.741 18.75a17.264 17.264 0 0 1 2.386 18.769c-2.466 5.327-6.628 8.065-12.27 9.212a60.246 60.246 0 0 1-15.71 1.128c7.362-.037 19.533-.407 24.626-6.283a17.01 17.01 0 0 0 .943-21.969c-7.047-8.632-16.814-14.681-26.716-19.607Z" fill="#263238"/><path d="M94.127 162.047c-1.646.185-5.271-2.676-6.782-5.192-.099-.173.099-2.041.228-4.316.074-1.387.124-2.929.068-4.316 0-.284.999.203.999.203l1.85.37 6.098 1.233a22.546 22.546 0 0 0-.617 5.445c.01.195.036.389.08.579v.093c.204 1.067.654 5.617-1.924 5.901Z" fill="#D3766A"/><path d="M96.014 156.029v.092c-.3.053-.602.082-.906.087-5.963.098-7.005-7.443-7.005-7.443h2.356l6.098 1.234a22.532 22.532 0 0 0-.617 5.444c.007.197.032.393.074.586Z" fill="#263238"/><path d="M87.013 136.255c-1.233 3.046-.296 12.221 1.764 14.422 2.984 3.181 8.243 3.897 11.043.222 2.719-3.564 1.313-15.501-1.018-17.536-3.44-2.997-10-1.628-11.789 2.892Z" fill="#D3766A"/><path d="M95.934 142.217s-.049.037-.043.062c.105.617.124 1.332-.407 1.615v.031c.666-.172.636-1.128.45-1.708Z" fill="#263238"/><path d="M95.282 141.668c-.999.062-.802 2.06.123 2.004.925-.055.716-2.071-.123-2.004ZM99.196 141.804s.05 0 .056.05c.037.616.19 1.319.77 1.473v.031c-.69-.025-.888-.962-.826-1.554Z" fill="#263238"/><path d="M99.685 141.101c.986-.172 1.233 1.813.351 1.973-.882.161-1.178-1.825-.351-1.973ZM94.405 140.836c.256-.102.505-.219.746-.351.28-.086.522-.262.69-.5a.425.425 0 0 0-.116-.499 1.043 1.043 0 0 0-1.067 0 1.555 1.555 0 0 0-.82.752.45.45 0 0 0 .567.598ZM100.301 140.256a7.442 7.442 0 0 1-.814-.129 1.334 1.334 0 0 1-.802-.284.42.42 0 0 1 0-.518 1.028 1.028 0 0 1 1.018-.302c.382.037.737.212.998.493a.456.456 0 0 1-.4.74ZM95.554 148.081c.16.129.326.314.555.314.228-.03.448-.105.647-.222 0 0 .043 0 0 0a.815.815 0 0 1-.752.413.654.654 0 0 1-.537-.493.043.043 0 0 1 .037-.049.042.042 0 0 1 .033.008c.009.007.015.017.017.029Z" fill="#263238"/><path d="M96.016 146.169a2.14 2.14 0 0 0 1.498.796c.255.022.513.008.764-.043a.53.53 0 0 0 .142-.031l.13-.031a.156.156 0 0 0 .11-.154.19.19 0 0 0 0-.062v-.055c0-.475-.153-1.196-.153-1.196.184.067 1.11.382 1.072.135a31.752 31.752 0 0 0-1.449-6.289c0-.068-.123-.037-.11 0 .234 1.979.82 3.903 1.09 5.888a3.726 3.726 0 0 0-1.023-.203c-.068 0 .253 1.387.247 1.603a2.93 2.93 0 0 1-2.245-.456c-.067.006-.11.049-.073.098Z" fill="#263238"/><path d="M97.97 146.712a2.465 2.465 0 0 1-.919.87 1.106 1.106 0 0 1-.678.111c-.512-.081-.568-.531-.512-.925.027-.212.08-.419.16-.617.573.39 1.256.587 1.949.561Z" fill="#263238"/><path d="M97.051 147.582a1.106 1.106 0 0 1-.678.111c-.512-.081-.568-.531-.512-.925a1.17 1.17 0 0 1 1.19.814Z" fill="#FF9BBC"/><path d="M86.717 144.961c1.702-.53 2.43-6.302 2.43-6.302s.042 2.436.499 2.368c.456-.068 2.244-3.428 2.392-5.808a18.759 18.759 0 0 0 4.396 2.004c2.19.616 4.588.388 4.581 0-.03-1.098-1.103-3.946-2.62-4.933a7.758 7.758 0 0 0-7.744-.752c-3.515 1.449-4.384 3.749-4.865 5.549-.481 1.801.284 8.071.93 7.874Z" fill="#263238"/><path d="M94.491 145.744a2.916 2.916 0 1 1 2.99-3.502 2.93 2.93 0 0 1-2.268 3.447 2.91 2.91 0 0 1-.722.055Zm.247-5.438a2.532 2.532 0 0 0-2.611 2.881 2.528 2.528 0 1 0 2.611-2.881ZM101.163 145.239c-1.116-.056-2.072-1.234-2.176-2.763a3.48 3.48 0 0 1 .468-2.078 1.943 1.943 0 0 1 1.492-.986 1.93 1.93 0 0 1 1.61.771 3.42 3.42 0 0 1 .758 1.985c.117 1.609-.765 2.984-1.961 3.083l-.191-.012Zm-.043-5.439h-.148a1.544 1.544 0 0 0-1.184.802 3.084 3.084 0 0 0-.413 1.85c.099 1.387.968 2.466 1.955 2.392.986-.074 1.695-1.233 1.597-2.645a3.097 3.097 0 0 0-.666-1.77 1.633 1.633 0 0 0-.504-.435 1.628 1.628 0 0 0-.637-.194Z" fill="#BF3855"/><path d="m97.408 142.587-.271-.283c.413-.401 1.4-.975 2.164-.259l-.265.283c-.685-.635-1.591.222-1.628.259ZM84.498 144.252l-.357-.154c.067-.173.727-1.64 1.584-1.85.857-.21 6.049-.068 6.277-.062v.389c-1.504 0-5.55-.093-6.166.055-.616.148-1.165 1.215-1.338 1.622Z" fill="#BF3855"/><path d="M88.344 143.777s-1.85-3.052-3.243-2.404c-1.393.647-.092 4.982 1.43 5.66a1.577 1.577 0 0 0 1.243.105 1.582 1.582 0 0 0 .934-.827l-.364-2.534Z" fill="#D3766A"/><path d="M85.502 142.606s-.03.031 0 .043c1.067.505 1.578 1.56 1.918 2.633a.87.87 0 0 0-.574-.46.884.884 0 0 0-.721.139v.062a.974.974 0 0 1 1.054.407c.186.282.34.584.462.9.044.099.222.062.192-.056.117-1.418-.845-3.44-2.331-3.668Z" fill="#263238"/><path d="M96.491 131.6a13.34 13.34 0 0 0-3.6-1.412c-1.413-.302-5.957-.327-7.116.487-1.16.814-1.8 5.037-1.88 5.66-.08.623-.118 4.402 1.17 5.426 1.29 1.024 1.95-5.358 4.274-7.294s7.152-2.867 7.152-2.867Z" fill="#BF3855"/><path opacity=".1" d="M96.496 131.6s-4.828.925-7.153 2.867c-2.324 1.942-2.996 8.311-4.285 7.294a3.015 3.015 0 0 1-.968-2.09c.444-1.85 1.436-4.674 3.163-6.548 1.615-1.758 4.199-2.497 6.906-2.578a15.38 15.38 0 0 1 2.337 1.055Z" fill="#000"/><path d="M85.12 145.584c.26-1.696 2.374-6.104 4.409-8.565 2.034-2.46 7.497-3.539 8.256-3.434 1.806.253 2.374.857 2.676.715.302-.142-1.455-1.652-1.936-2.004-.481-.351-1.795-1.177-2.584-1.233-.789-.055-5.685.031-7.627 1.955-1.942 1.923-4.933 7.516-4.587 9.039.08.364.536.616.647 1.153.142.678.216 1.461.376 1.942.16.481.346.574.37.432Z" fill="#BF3855"/><path d="M90.04 135.879a8.573 8.573 0 0 1-1.104-.962 5.913 5.913 0 0 1-.912-1.159c0-.031-.068 0-.056 0 .202.468.477.901.814 1.282.35.376.769.681 1.233.901.031.049.068-.025.025-.062ZM85.244 143.882a4.003 4.003 0 0 0-.16-.37 2.042 2.042 0 0 1-.124-.432 3.588 3.588 0 0 0-.123-.863 2.907 2.907 0 0 0-.352-.616 1.157 1.157 0 0 1-.277-.722c0-.031-.05-.037-.056 0 .037.488.196.959.463 1.369.075.296.128.597.16.9.041.288.178.553.388.753.031.055.093.024.08-.019ZM85.983 142.088c-.142-.204-.302-.395-.431-.617a5.414 5.414 0 0 1-.309-.666c-.092-.228-.16-.456-.246-.684-.087-.228-.235-.524-.321-.795 0-.037-.062 0-.05 0 .087.283.13.616.21.869.076.245.164.486.265.721a4.1 4.1 0 0 0 .352.685c.134.208.308.388.512.53 0 0 .03-.025.018-.043ZM86.742 140.479a4.809 4.809 0 0 1-.839-1.123c-.216-.406-.407-.826-.617-1.233h-.055c.105.466.266.918.48 1.344.11.205.24.397.39.574.173.178.365.337.573.475 0 0 .092-.013.067-.037ZM87.549 138.943a1.581 1.581 0 0 1-.414-.493 16.44 16.44 0 0 1-.376-.617c-.117-.203-.24-.4-.351-.616a1.614 1.614 0 0 1-.253-.654c0-.031-.055-.031-.055 0-.002.235.044.468.135.685a4.88 4.88 0 0 0 .758 1.313c.124.193.306.341.519.425.037.037.074-.018.037-.043ZM88.202 136.964c-.141-.173-.283-.339-.419-.518a7.817 7.817 0 0 1-.37-.549c-.117-.185-.253-.388-.37-.616h-.05c.073.211.16.417.26.616.11.202.234.395.37.58.13.186.271.363.425.53.143.177.319.323.518.432 0 0 .068 0 .056-.05a3.04 3.04 0 0 0-.42-.425ZM91.426 135.022a7.795 7.795 0 0 0-.468-.648 12.85 12.85 0 0 0-.555-.616 7.72 7.72 0 0 0-1.233-.999s-.068 0-.044.043c.753.752 1.53 1.48 2.27 2.244.012.037.055.006.03-.024ZM92.58 133.653a3.515 3.515 0 0 0-.53-.617 7.872 7.872 0 0 0-1.393-.931c-.03 0-.062 0-.03.043.412.333.838.654 1.232 1.012.201.17.39.353.568.548.178.198.308.426.474.617h.037a2.078 2.078 0 0 0-.357-.672ZM94.085 133.104a3.773 3.773 0 0 0-.487-.617 4.32 4.32 0 0 0-1.184-.832c-.031 0-.056.031 0 .049.392.285.76.602 1.097.95.173.173.333.351.494.536.16.185.296.401.474.561 0 0 .037 0 0 0a3.878 3.878 0 0 0-.394-.647ZM95.147 132.352c-.167-.16-.34-.308-.512-.462a2.333 2.333 0 0 0-.567-.383c-.031 0-.05 0 0 .05l.961.937c.276.307.516.644.716 1.005h.037a2.207 2.207 0 0 0-.635-1.147ZM96.448 132.173a3.425 3.425 0 0 0-1.073-.801c-.03 0-.056.03-.03.049.363.237.69.528.967.863.282.333.528.695.734 1.079h.037a2.887 2.887 0 0 0-.635-1.19ZM98.055 133.073a1.804 1.804 0 0 0-.124-.271 2.881 2.881 0 0 0-.339-.493 5.99 5.99 0 0 0-.906-.82s-.062 0-.03.043c.311.245.593.526.838.838a3.758 3.758 0 0 1 .456.74c.035.088.076.172.123.253h.05a.737.737 0 0 0-.068-.29Z" fill="#263238"/><path d="M64.92 202.797c.08.105 39.092 4.155 39.462 3.792.555-.512-2.522-40.22-8.016-49.284-1.368-2.269-6.782-4.193-9.285-2.22-7.214 5.71-9.058 10.865-11.167 15.033-1.56 3.083-3.582 8.398-5.456 13.867-3.083 9.008-5.821 18.411-5.537 18.812Z" fill="#C7C7C7"/><path d="M125.464 154.413s-3.7-.764-2.96-3.243c.74-2.479 4.261-1.122 4.261-1.122l-1.301 4.365Z" fill="#455A64"/><path d="m152.044 157.466 2.651 2.558.882.845-1.196.241-3.62.721-25.415-7.461 1.276-4.365 25.422 7.461Z" fill="#455A64"/><path d="m154.676 160.024.882.845-1.203.24.321-1.085ZM126.577 149.617l-1.495 5.094 1.012.297 1.495-5.094-1.012-.297ZM127.68 149.914l-1.494 5.095 1.011.296 1.495-5.094-1.012-.297ZM127.201 155.32l.487-1.647 8.928 3.607-.215.592-9.2-2.552Z" fill="#37474F"/><path d="M89.09 161.405c2.898 4.643 16.191 21.39 23.43 21.26 8.762-.154 19.404-3.083 24.627-5.346 2.756-1.19-6.684-14.958-9.151-13.768-3.872 1.85-11.653 3.533-13.201 3.835-1.547.302-13.564-7.251-20.174-11.043-5.975-3.416-7.239 2.325-5.531 5.062Z" fill="#D3766A"/><path d="M149.133 154.012c.857 1.85-3.829 3.558-3.829 3.558a3.7 3.7 0 0 1 2.226 1.233c.962 1.196-.487 3.231-.487 3.231.865.32 1.613.894 2.146 1.646.807 1.234-.358 3.497-.358 3.497.63.732.976 1.666.974 2.632-.111 2.584-3.545 4.532-5.716 5.796-2.17 1.264-9.507 2.806-10.876 3.237L125 164.981s8.127-8.422 10.889-9.544c2.331-.974 11.937-4.218 13.244-1.425Z" fill="#D3766A"/><path d="M145.262 157.533c-2.719.407-5.327 1.468-7.837 2.516a.054.054 0 0 0-.016.026.055.055 0 0 0 .003.031.055.055 0 0 0 .02.023c.009.005.02.007.03.006 2.466-1.073 5.315-1.504 7.831-2.466a.068.068 0 0 0 .043-.031.07.07 0 0 0-.074-.105ZM146.897 161.849a7.1 7.1 0 0 0-1.739.685c-.617.289-1.196.585-1.782.887-1.178.617-2.343 1.234-3.49 1.924-.049.031 0 .117.037.087a78.867 78.867 0 0 1 3.564-1.752c.616-.283 1.202-.554 1.806-.826a8.622 8.622 0 0 0 1.671-.838.094.094 0 0 0 .032-.11.1.1 0 0 0-.04-.046.094.094 0 0 0-.059-.011ZM148.782 167.17a5.02 5.02 0 0 0-1.535.703c-.53.29-1.061.58-1.597.864-1.067.567-2.14 1.134-3.225 1.664a.053.053 0 0 0-.016.027.052.052 0 0 0 .003.03c.004.01.011.018.02.023.009.005.02.008.03.007 1.104-.537 2.22-1.055 3.324-1.597l1.621-.808c.517-.2.994-.493 1.406-.863 0 0-.006-.056-.031-.05Z" fill="#263238"/><path d="m124.736 164.014 7.893 15.568s-14.965 5.124-21.414 3.576c-6.45-1.547-16.08-12.664-20.829-19.262-4.747-6.597-3.44-12.8 7.455-6.165 10.895 6.634 16.031 9.106 16.765 9.162.734.055 10.13-2.879 10.13-2.879Z" fill="#C7C7C7"/><path d="M117.054 183.14c-.087-.056-6.783-.142-8.602-1.363-1.449-.955-9.988-8.065-17.387-16.832l-.043.037c1.041 1.504 2.182 2.947 3.366 4.353-.08-.062-.166-.117-.253-.173a25.788 25.788 0 0 1-2.14-1.498c-.049-.037-.104.043-.055.086.685.518 1.32 1.11 1.992 1.652.32.266.647.525.992.759l.414.277c.376.426.752.851 1.134 1.271.974 1.066 9.249 9.248 12.221 10.722 1.88.925 7.843.931 8.416.789.062-.018.006-.043-.055-.08ZM129.138 180.02a39.202 39.202 0 0 0-1.695-3.65 173.645 173.645 0 0 0-1.758-3.539c-1.196-2.374-2.343-4.791-3.699-7.085a.05.05 0 0 0-.029-.026.052.052 0 0 0-.039.001.05.05 0 0 0-.026.029.052.052 0 0 0 .001.039c.968 2.467 2.202 4.933 3.392 7.307.596 1.204 1.212 2.4 1.849 3.588a35.434 35.434 0 0 0 1.918 3.391.05.05 0 0 0 .014.015c.005.004.012.006.018.008a.067.067 0 0 0 .02 0c.007-.001.013-.004.019-.007a.062.062 0 0 0 .014-.014.048.048 0 0 0 .008-.018.046.046 0 0 0 .001-.02.064.064 0 0 0-.008-.019Z" fill="#263238"/><path d="M94.843 155.813c-2.96-1.93-11.413-3.379-15.032-1.363-4.575 2.541-9.989 19.034-8.305 20.181 3.002 2.041 14.736-6.819 17.455-10.63 2.72-3.81 5.882-8.188 5.882-8.188Z" fill="#C7C7C7"/><path d="M92.234 160.659c-.616.537-1.233 1.061-1.85 1.603.833-1.103 1.671-2.201 2.467-3.329.03-.037 0-.086-.062-.056a46.052 46.052 0 0 0-3.021 3.546c-1.005 1.233-2.016 2.466-3.083 3.613a31.078 31.078 0 0 1-3.397 3.292 32.59 32.59 0 0 1-4.113 2.806c-.822.481-1.644.943-2.466 1.387-.888.481-1.812.894-2.763 1.233-.178.056-.067.124 0 .105a13.792 13.792 0 0 0 2.35-.888c.789-.37 1.578-.733 2.355-1.116a29.263 29.263 0 0 0 4.316-2.466c2.657-1.899 4.692-4.396 6.604-7.004l.11-.155c.364-.326.716-.665 1.055-1.011a26.43 26.43 0 0 1 1.535-1.443c.056-.061-.037-.16-.037-.117Z" fill="#263238"/><path d="M95.139 112.652v15.31h2.145v3.712l3.712-3.712h20.378v-15.31H95.139Z" fill="#fff"/><path d="M95.138 112.652c.056 3.823.142 11.493.185 15.31l-.185-.185h2.343v3.903l-.388-.161 3.699-3.736c.093-.093.068-.08.185-.08l20.348-.037-.303.302.044-15.31.259.265c-6.536-.037-19.7-.179-26.236-.265l.05-.006Zm0 0c6.672-.086 19.823-.222 26.513-.265v.265l.037 15.31v.302h-.302l-20.347-.037.191-.08-4.137 4.081c0-.185.043-3.952.037-4.266l.197.203h-2.336c.042-3.909.129-11.586.19-15.495l-.043-.018Z" fill="#263238"/><path d="M113.197 120.31a1.237 1.237 0 0 0 .762 1.139 1.231 1.231 0 0 0 1.611-1.611 1.24 1.24 0 0 0-1.14-.761 1.236 1.236 0 0 0-1.233 1.233ZM107.031 120.31a1.237 1.237 0 0 0 .762 1.139 1.231 1.231 0 0 0 1.611-1.611 1.24 1.24 0 0 0-1.14-.761 1.236 1.236 0 0 0-1.233 1.233ZM100.811 120.31a1.236 1.236 0 0 0 .761 1.139 1.231 1.231 0 0 0 1.611-1.611 1.227 1.227 0 0 0-1.139-.761 1.234 1.234 0 0 0-1.233 1.233Z" fill="#263238"/><path d="M332.801 38.847V54.15h2.152v3.712l3.711-3.712h20.379V38.847h-26.242Z" fill="#fff"/><path d="M332.8 38.847c.062 3.817.142 11.487.185 15.303l-.185-.184h2.349v3.903l-.388-.16 3.699-3.737c.086-.093.068-.074.185-.074l20.378-.043-.302.302.037-15.304.265.259c-6.542-.037-19.73-.179-26.242-.259l.019-.006Zm0 0c6.677-.086 19.829-.228 26.513-.265v.265l.037 15.303v.303h-.302l-20.378-.037.185-.08c-.124.129-4.174 4.124-4.131 4.081 0-.185.043-3.952.03-4.267l.204.204h-2.337c.043-3.91.13-11.586.185-15.489l-.006-.018Z" fill="#263238"/><path d="M350.885 46.499a1.23 1.23 0 0 0 .761 1.14 1.235 1.235 0 0 0 1.681-.9 1.229 1.229 0 0 0-1.209-1.474 1.233 1.233 0 0 0-1.233 1.234ZM344.676 46.499a1.23 1.23 0 0 0 .761 1.14 1.235 1.235 0 0 0 1.681-.9 1.229 1.229 0 0 0-1.209-1.474 1.233 1.233 0 0 0-1.233 1.234ZM338.473 46.499a1.23 1.23 0 0 0 .761 1.14 1.232 1.232 0 1 0-.761-1.14Z" fill="#263238"/></g></svg>